<svg width="1102" height="791" viewBox="0 0 1102 791" fill="none" xmlns="http://www.w3.org/2000/svg">
<g clip-path="url(#clip0)">
<path opacity="0.1" d="M709.17 86.44C665.39 116.91 608.6 114.94 558.83 99.09C509.06 83.24 463.35 55 414.83 34.93C374.407 18.1731 331.843 7.14005 288.37 2.15001C226.57 -4.84999 157.56 3.68002 114.5 52.95C66.55 107.82 70.23 206.77 122.09 257.14C148.47 282.76 183.02 295.33 213.09 315.33C243.16 335.33 271.09 368.55 268.54 407.16C266.16 442.9 238.54 470.32 209.97 487.53C187.89 500.83 160.68 515.35 158.02 542.9C155.45 569.55 178.32 590.44 200.16 602.31C271.41 641.06 359.16 640.69 430.16 601.31C455.48 587.31 478.76 568.6 505.31 557.66C575.04 528.93 651.87 557.85 725.7 568.42C788.431 577.355 852.348 572.731 913.14 554.86C949.71 544.12 986.41 527.71 1012.09 497.13C1030.61 475.13 1042.15 447.18 1052.99 419.63C1064.54 390.243 1075.64 360.65 1086.3 330.85C1092.69 312.96 1098.99 294.73 1100.64 275.59C1103.64 240.9 1091.02 206.59 1073.85 177.35C1033.08 107.86 964.4 58.99 890.07 46.58C815.74 34.17 736.98 58.41 679.3 111.46" fill="black"/>
<path opacity="0.1" d="M176 727.42C273.202 727.42 352 713.993 352 697.43C352 680.867 273.202 667.44 176 667.44C78.7979 667.44 0 680.867 0 697.43C0 713.993 78.7979 727.42 176 727.42Z" fill="black"/>
<path d="M993.12 182H257.34C240.584 182 227 195.584 227 212.34V529.25C227 546.006 240.584 559.59 257.34 559.59H993.12C1009.88 559.59 1023.46 546.006 1023.46 529.25V212.34C1023.46 195.584 1009.88 182 993.12 182Z" fill="#F0F0F0"/>
<path opacity="0.2" d="M389.67 492.93H260.86C257.191 492.93 253.558 492.207 250.168 490.803C246.778 489.399 243.698 487.341 241.103 484.747C238.509 482.152 236.451 479.072 235.047 475.682C233.643 472.292 232.92 468.659 232.92 464.99V280.58C232.919 276.911 233.64 273.277 235.044 269.886C236.448 266.496 238.506 263.415 241.101 260.821C243.695 258.226 246.776 256.168 250.166 254.764C253.557 253.36 257.191 252.639 260.86 252.64H389.67V492.93Z" fill="#AEAEAE"/>
<path opacity="0.2" d="M987.44 492.93H858.64V252.64H987.44C991.11 252.639 994.743 253.36 998.134 254.764C1001.52 256.168 1004.6 258.226 1007.2 260.821C1009.79 263.415 1011.85 266.496 1013.26 269.886C1014.66 273.277 1015.38 276.911 1015.38 280.58V464.99C1015.38 468.659 1014.66 472.292 1013.25 475.682C1011.85 479.072 1009.79 482.152 1007.2 484.747C1004.6 487.341 1001.52 489.399 998.132 490.803C994.742 492.207 991.109 492.93 987.44 492.93Z" fill="#AEAEAE"/>
<path opacity="0.2" d="M701.9 252.63H545.16V492.92H701.9V252.63Z" fill="#AEAEAE"/>
<path opacity="0.2" d="M858.64 252.63H701.9V492.92H858.64V252.63Z" fill="#AEAEAE"/>
<g opacity="0.1">
<path opacity="0.2" d="M546.16 252.63H389.42V492.92H546.16V252.63Z" fill="white"/>
</g>
<path d="M478.51 359.05C477.908 359.05 477.331 358.811 476.905 358.385C476.479 357.959 476.24 357.382 476.24 356.78V350.23C476.24 349.932 476.299 349.637 476.413 349.361C476.527 349.086 476.694 348.836 476.905 348.625C477.116 348.414 477.366 348.247 477.641 348.133C477.917 348.019 478.212 347.96 478.51 347.96C478.808 347.96 479.103 348.019 479.379 348.133C479.654 348.247 479.904 348.414 480.115 348.625C480.326 348.836 480.493 349.086 480.607 349.361C480.721 349.637 480.78 349.932 480.78 350.23V356.8C480.775 357.399 480.533 357.971 480.108 358.392C479.683 358.814 479.109 359.05 478.51 359.05Z" fill="#2881E2"/>
<path d="M467.01 363.81C466.713 363.811 466.419 363.753 466.144 363.639C465.87 363.526 465.62 363.36 465.41 363.15L460.77 358.5C460.539 358.295 460.352 358.044 460.222 357.764C460.091 357.484 460.018 357.181 460.009 356.872C460 356.563 460.054 356.255 460.167 355.968C460.281 355.681 460.452 355.42 460.67 355.201C460.889 354.982 461.149 354.81 461.436 354.695C461.723 354.581 462.031 354.526 462.339 354.534C462.648 354.542 462.952 354.614 463.233 354.744C463.513 354.874 463.764 355.06 463.97 355.29L468.62 359.94C468.936 360.258 469.151 360.663 469.237 361.102C469.324 361.542 469.278 361.998 469.106 362.412C468.933 362.826 468.642 363.18 468.27 363.428C467.897 363.677 467.458 363.81 467.01 363.81Z" fill="#2881E2"/>
<path d="M494.66 391.45C494.057 391.451 493.478 391.214 493.05 390.79L488.41 386.14C488.18 385.934 487.994 385.683 487.864 385.403C487.734 385.122 487.662 384.818 487.654 384.509C487.646 384.201 487.701 383.893 487.815 383.606C487.93 383.319 488.102 383.059 488.321 382.84C488.54 382.622 488.801 382.451 489.088 382.337C489.375 382.224 489.683 382.17 489.992 382.179C490.301 382.188 490.604 382.261 490.884 382.392C491.164 382.522 491.415 382.709 491.62 382.94L496.26 387.58C496.575 387.897 496.79 388.301 496.877 388.74C496.963 389.179 496.919 389.634 496.748 390.047C496.577 390.461 496.287 390.815 495.916 391.064C495.544 391.314 495.107 391.448 494.66 391.45Z" fill="#2881E2"/>
<path d="M501.34 375.31H494.77C494.168 375.31 493.591 375.071 493.165 374.645C492.739 374.219 492.5 373.642 492.5 373.04C492.5 372.438 492.739 371.861 493.165 371.435C493.591 371.009 494.168 370.77 494.77 370.77H501.34C501.942 370.77 502.519 371.009 502.945 371.435C503.371 371.861 503.61 372.438 503.61 373.04C503.61 373.642 503.371 374.219 502.945 374.645C502.519 375.071 501.942 375.31 501.34 375.31Z" fill="#2881E2"/>
<path d="M490.01 363.81C489.563 363.808 489.126 363.674 488.754 363.424C488.383 363.175 488.093 362.821 487.922 362.407C487.751 361.994 487.707 361.539 487.793 361.1C487.88 360.661 488.095 360.257 488.41 359.94L493.05 355.29C493.26 355.075 493.51 354.903 493.787 354.786C494.063 354.668 494.36 354.606 494.661 354.604C494.962 354.602 495.26 354.66 495.538 354.774C495.816 354.889 496.068 355.057 496.281 355.269C496.493 355.482 496.661 355.734 496.776 356.012C496.89 356.29 496.947 356.588 496.946 356.889C496.944 357.19 496.882 357.487 496.764 357.763C496.647 358.04 496.475 358.29 496.26 358.5L491.62 363.15C491.19 363.572 490.612 363.809 490.01 363.81Z" fill="#2881E2"/>
<path d="M490.57 373.04C490.577 370.494 489.774 368.012 488.277 365.952C486.78 363.893 484.667 362.363 482.243 361.584C479.82 360.804 477.211 360.816 474.794 361.617C472.377 362.418 470.278 363.967 468.8 366.04C466.653 364.824 464.266 364.093 461.806 363.9C459.347 363.707 456.875 364.055 454.564 364.921C452.254 365.787 450.162 367.149 448.435 368.911C446.708 370.673 445.389 372.793 444.57 375.12C443.27 374.972 441.954 375.049 440.68 375.35C437.77 376.043 435.254 377.862 433.683 380.408C432.112 382.954 431.615 386.018 432.3 388.93C432.883 391.408 434.287 393.615 436.284 395.193C438.282 396.771 440.755 397.627 443.3 397.62H473.57C474.58 397.618 475.587 397.5 476.57 397.27C479.847 396.491 482.695 394.475 484.52 391.644C486.344 388.813 487.004 385.386 486.36 382.08C487.669 380.963 488.722 379.578 489.449 378.018C490.175 376.458 490.557 374.761 490.57 373.04ZM475.57 392.85C474.916 393.01 474.244 393.087 473.57 393.08H443.25C441.602 393.07 440.014 392.458 438.787 391.358C437.559 390.259 436.776 388.748 436.585 387.111C436.394 385.474 436.809 383.824 437.752 382.471C438.694 381.119 440.098 380.158 441.7 379.77C442.211 379.647 442.734 379.583 443.26 379.58C443.992 379.58 444.718 379.702 445.41 379.94C445.715 380.042 446.039 380.079 446.359 380.048C446.68 380.017 446.99 379.919 447.27 379.76C447.549 379.6 447.79 379.383 447.978 379.122C448.166 378.862 448.296 378.565 448.36 378.25C448.872 375.781 450.129 373.528 451.96 371.794C453.792 370.061 456.11 368.93 458.604 368.554C461.097 368.178 463.646 368.576 465.907 369.692C468.168 370.809 470.033 372.591 471.25 374.8C471.273 374.83 471.29 374.864 471.3 374.9C471.503 375.269 471.804 375.575 472.169 375.785C472.534 375.994 472.949 376.1 473.37 376.09H473.62C475.068 376.081 476.495 376.444 477.762 377.145C479.03 377.845 480.097 378.859 480.86 380.09C481.32 380.867 481.657 381.71 481.86 382.59C482.001 383.204 482.078 383.83 482.09 384.46C482.116 386.391 481.485 388.273 480.3 389.798C479.116 391.322 477.447 392.399 475.57 392.85ZM481.65 374.31C479.63 372.741 477.199 371.793 474.65 371.58C474.001 370.576 473.247 369.644 472.4 368.8C472.959 367.978 473.677 367.276 474.511 366.735C475.345 366.194 476.279 365.825 477.257 365.649C478.236 365.474 479.24 365.495 480.21 365.713C481.18 365.93 482.097 366.339 482.907 366.915C483.717 367.492 484.404 368.224 484.927 369.069C485.451 369.915 485.8 370.856 485.955 371.838C486.11 372.82 486.067 373.823 485.829 374.789C485.592 375.754 485.163 376.662 484.57 377.46C483.777 376.256 482.79 375.192 481.65 374.31Z" fill="#2881E2"/>
<g opacity="0.8">
<path opacity="0.5" d="M658.01 370.23C657.379 367.536 655.905 365.114 653.803 363.315C651.7 361.517 649.079 360.436 646.32 360.23C644.846 357.952 642.845 356.062 640.485 354.723C638.125 353.383 635.477 352.632 632.765 352.534C630.054 352.436 627.358 352.993 624.908 354.159C622.458 355.325 620.325 357.064 618.69 359.23C615.335 359.389 612.104 360.545 609.41 362.551C606.717 364.557 604.683 367.321 603.57 370.49C602.045 370.32 600.502 370.462 599.034 370.907C597.566 371.353 596.205 372.093 595.033 373.083C593.86 374.072 592.902 375.291 592.216 376.663C591.53 378.035 591.131 379.533 591.044 381.064C590.956 382.596 591.181 384.129 591.706 385.571C592.23 387.012 593.043 388.332 594.095 389.449C595.146 390.566 596.414 391.457 597.822 392.067C599.229 392.678 600.746 392.995 602.28 393H632.57C633.58 392.998 634.587 392.88 635.57 392.65C637.33 392.232 638.984 391.452 640.426 390.361C641.869 389.269 643.069 387.89 643.95 386.31H645.29C646.3 386.308 647.306 386.19 648.29 385.96C649.962 385.567 651.54 384.848 652.934 383.845C654.328 382.841 655.51 381.572 656.413 380.111C657.316 378.65 657.922 377.025 658.196 375.33C658.47 373.634 658.407 371.901 658.01 370.23ZM638.24 386.23C637.202 387.192 635.941 387.879 634.57 388.23C633.914 388.383 633.243 388.46 632.57 388.46H602.23C600.575 388.46 598.977 387.852 597.74 386.752C596.504 385.651 595.715 384.135 595.524 382.49C595.332 380.846 595.752 379.189 596.703 377.833C597.653 376.478 599.069 375.52 600.68 375.14C601.668 374.919 602.692 374.919 603.68 375.14C603.924 375.195 604.165 375.265 604.4 375.35C604.708 375.458 605.036 375.499 605.361 375.47C605.687 375.44 606.002 375.342 606.286 375.181C606.57 375.02 606.816 374.8 607.009 374.536C607.201 374.272 607.334 373.97 607.4 373.65C607.982 370.875 609.5 368.385 611.699 366.595C613.898 364.806 616.645 363.826 619.48 363.82C620.045 363.819 620.61 363.86 621.17 363.94C623.091 364.205 624.922 364.919 626.515 366.024C628.108 367.129 629.419 368.594 630.34 370.3C630.537 370.672 630.835 370.981 631.199 371.191C631.563 371.402 631.98 371.505 632.4 371.49H632.57C634.292 371.494 635.971 372.021 637.387 373.001C638.803 373.98 639.887 375.367 640.498 376.977C641.108 378.586 641.215 380.344 640.805 382.016C640.394 383.688 639.486 385.196 638.2 386.34L638.24 386.23ZM647.24 381.46C646.66 381.601 646.067 381.678 645.47 381.69C645.697 380.086 645.619 378.455 645.24 376.88C644.609 374.186 643.135 371.764 641.033 369.965C638.931 368.167 636.309 367.086 633.55 366.88C631.373 363.514 628.069 361.033 624.23 359.88C625.633 358.71 627.278 357.866 629.048 357.41C630.817 356.954 632.665 356.897 634.459 357.244C636.253 357.59 637.947 358.331 639.419 359.413C640.891 360.496 642.104 361.891 642.97 363.5C643.17 363.872 643.469 364.18 643.835 364.391C644.201 364.601 644.618 364.705 645.04 364.69H645.29C647.376 364.681 649.393 365.44 650.956 366.822C652.519 368.203 653.52 370.112 653.767 372.183C654.014 374.255 653.49 376.345 652.296 378.056C651.102 379.766 649.32 380.978 647.29 381.46H647.24Z" fill="#333333"/>
</g>
<g opacity="0.8">
<path opacity="0.5" d="M948.57 391.69L947.11 390.84L948.57 390C948.701 389.926 948.817 389.826 948.91 389.708C949.003 389.589 949.071 389.453 949.112 389.308C949.152 389.162 949.163 389.01 949.145 388.861C949.127 388.711 949.079 388.566 949.005 388.435C948.931 388.304 948.831 388.188 948.713 388.095C948.594 388.002 948.458 387.934 948.313 387.893C948.167 387.853 948.015 387.842 947.866 387.86C947.716 387.878 947.571 387.926 947.44 388L945.97 388.85V387.23C945.985 387.072 945.967 386.913 945.916 386.762C945.866 386.612 945.785 386.473 945.678 386.356C945.571 386.239 945.441 386.145 945.296 386.081C945.151 386.016 944.994 385.983 944.835 385.983C944.676 385.983 944.519 386.016 944.374 386.081C944.229 386.145 944.099 386.239 943.992 386.356C943.885 386.473 943.804 386.612 943.754 386.762C943.703 386.913 943.685 387.072 943.7 387.23V388.9L942.25 388.06C941.985 387.91 941.671 387.872 941.377 387.953C941.084 388.035 940.835 388.23 940.685 388.495C940.535 388.76 940.497 389.074 940.578 389.368C940.66 389.661 940.855 389.91 941.12 390.06L942.57 390.89L941.12 391.73C940.991 391.805 940.878 391.904 940.787 392.022C940.697 392.141 940.631 392.276 940.592 392.42C940.554 392.564 940.545 392.714 940.565 392.862C940.585 393.009 940.635 393.151 940.71 393.28C940.811 393.455 940.957 393.6 941.133 393.701C941.309 393.801 941.508 393.852 941.71 393.85C941.908 393.853 942.103 393.798 942.27 393.69L943.72 392.86V394.55C943.747 394.833 943.878 395.095 944.088 395.286C944.297 395.477 944.571 395.583 944.855 395.583C945.139 395.583 945.413 395.477 945.623 395.286C945.832 395.095 945.963 394.833 945.99 394.55V392.86L947.46 393.7C947.627 393.808 947.822 393.863 948.02 393.86C948.222 393.86 948.42 393.808 948.596 393.708C948.771 393.608 948.917 393.464 949.02 393.29C949.1 393.157 949.153 393.008 949.174 392.854C949.194 392.7 949.183 392.543 949.141 392.393C949.099 392.243 949.027 392.103 948.928 391.982C948.83 391.861 948.708 391.762 948.57 391.69Z" fill="#333333"/>
<path opacity="0.5" d="M941.74 382.23L940.28 381.39L941.74 380.54C941.869 380.466 941.982 380.368 942.072 380.251C942.162 380.133 942.229 379.999 942.267 379.856C942.305 379.712 942.314 379.563 942.294 379.416C942.274 379.269 942.225 379.128 942.15 379C942.076 378.87 941.978 378.756 941.86 378.665C941.742 378.573 941.607 378.506 941.463 378.467C941.318 378.428 941.168 378.418 941.02 378.437C940.872 378.456 940.729 378.505 940.6 378.58L939.14 379.43V377.75C939.113 377.467 938.982 377.205 938.772 377.014C938.563 376.823 938.289 376.717 938.005 376.717C937.721 376.717 937.447 376.823 937.238 377.014C937.028 377.205 936.897 377.467 936.87 377.75V379.42L935.42 378.59C935.289 378.516 935.144 378.468 934.994 378.45C934.845 378.432 934.693 378.443 934.547 378.483C934.402 378.524 934.266 378.592 934.147 378.685C934.029 378.778 933.929 378.894 933.855 379.025C933.781 379.156 933.733 379.301 933.715 379.451C933.697 379.6 933.708 379.752 933.748 379.898C933.789 380.043 933.857 380.179 933.95 380.298C934.043 380.416 934.159 380.516 934.29 380.59L935.74 381.43L934.29 382.26C934.068 382.382 933.894 382.575 933.795 382.807C933.696 383.04 933.677 383.299 933.743 383.544C933.809 383.788 933.954 384.003 934.157 384.155C934.36 384.306 934.607 384.386 934.86 384.38C935.057 384.38 935.25 384.328 935.42 384.23L936.87 383.39V385.09C936.897 385.373 937.028 385.635 937.238 385.826C937.447 386.017 937.721 386.123 938.005 386.123C938.289 386.123 938.563 386.017 938.772 385.826C938.982 385.635 939.113 385.373 939.14 385.09V383.39L940.57 384.23C940.744 384.327 940.94 384.379 941.14 384.38C941.389 384.377 941.63 384.293 941.826 384.141C942.023 383.989 942.164 383.776 942.229 383.536C942.293 383.296 942.277 383.041 942.184 382.811C942.09 382.58 941.924 382.387 941.71 382.26L941.74 382.23Z" fill="#333333"/>
<path opacity="0.5" d="M934.93 391.69L933.47 390.84L934.93 390C935.061 389.926 935.177 389.826 935.27 389.708C935.363 389.589 935.431 389.453 935.472 389.308C935.512 389.162 935.523 389.01 935.505 388.861C935.487 388.711 935.439 388.566 935.365 388.435C935.291 388.304 935.191 388.188 935.073 388.095C934.954 388.002 934.818 387.934 934.673 387.893C934.527 387.853 934.375 387.842 934.226 387.86C934.076 387.878 933.931 387.926 933.8 388L932.33 388.85V387.23C932.345 387.072 932.327 386.913 932.276 386.762C932.226 386.612 932.145 386.473 932.038 386.356C931.931 386.239 931.801 386.145 931.656 386.081C931.511 386.016 931.354 385.983 931.195 385.983C931.036 385.983 930.879 386.016 930.734 386.081C930.589 386.145 930.459 386.239 930.352 386.356C930.245 386.473 930.164 386.612 930.114 386.762C930.063 386.913 930.045 387.072 930.06 387.23V388.9L928.62 388.06C928.355 387.909 928.04 387.869 927.746 387.95C927.452 388.031 927.201 388.225 927.05 388.49C926.899 388.755 926.859 389.07 926.94 389.364C927.02 389.659 927.215 389.909 927.48 390.06L928.93 390.89L927.48 391.73C927.351 391.805 927.238 391.904 927.147 392.022C927.057 392.141 926.991 392.276 926.953 392.42C926.914 392.564 926.905 392.714 926.925 392.862C926.945 393.009 926.995 393.151 927.07 393.28C927.171 393.455 927.317 393.6 927.493 393.701C927.669 393.801 927.868 393.852 928.07 393.85C928.271 393.85 928.468 393.794 928.64 393.69L930.08 392.86V394.55C930.107 394.833 930.238 395.095 930.448 395.286C930.657 395.477 930.931 395.583 931.215 395.583C931.499 395.583 931.773 395.477 931.982 395.286C932.192 395.095 932.323 394.833 932.35 394.55V392.86L933.82 393.7C933.987 393.808 934.182 393.863 934.38 393.86C934.629 393.857 934.87 393.773 935.066 393.621C935.263 393.469 935.404 393.256 935.469 393.016C935.533 392.776 935.517 392.521 935.424 392.291C935.33 392.06 935.164 391.867 934.95 391.74L934.93 391.69Z" fill="#333333"/>
<path opacity="0.5" d="M965.01 367.63C964.372 364.94 962.896 362.522 960.795 360.724C958.694 358.927 956.077 357.844 953.32 357.63C951.607 354.984 949.188 352.87 946.336 351.528C943.483 350.186 940.312 349.67 937.182 350.037C934.051 350.404 931.086 351.641 928.622 353.607C926.158 355.573 924.294 358.189 923.24 361.16C921.715 360.99 920.172 361.132 918.704 361.577C917.236 362.023 915.875 362.763 914.703 363.753C913.53 364.742 912.572 365.961 911.886 367.333C911.2 368.705 910.802 370.203 910.714 371.734C910.626 373.266 910.851 374.799 911.376 376.241C911.9 377.682 912.713 379.002 913.765 380.119C914.816 381.236 916.084 382.127 917.492 382.737C918.899 383.348 920.416 383.665 921.95 383.67H925.57C926.172 383.67 926.749 383.431 927.175 383.005C927.601 382.579 927.84 382.002 927.84 381.4C927.84 380.798 927.601 380.221 927.175 379.795C926.749 379.369 926.172 379.13 925.57 379.13H921.92C920.4 379.133 918.923 378.621 917.731 377.676C916.54 376.732 915.704 375.411 915.36 373.93C914.954 372.191 915.251 370.361 916.188 368.84C917.124 367.319 918.624 366.23 920.36 365.81C921.592 365.522 922.88 365.58 924.08 365.98C924.387 366.091 924.715 366.135 925.041 366.108C925.367 366.081 925.683 365.984 925.968 365.824C926.253 365.663 926.5 365.443 926.692 365.178C926.884 364.914 927.016 364.611 927.08 364.29C927.595 361.813 928.859 359.554 930.702 357.819C932.544 356.084 934.875 354.958 937.378 354.592C939.882 354.226 942.438 354.639 944.699 355.775C946.96 356.91 948.818 358.713 950.02 360.94C950.219 361.31 950.517 361.618 950.881 361.828C951.245 362.038 951.66 362.143 952.08 362.13H952.34C954.426 362.121 956.443 362.88 958.006 364.262C959.569 365.643 960.57 367.552 960.817 369.623C961.064 371.695 960.54 373.785 959.346 375.496C958.152 377.206 956.37 378.418 954.34 378.9C953.684 379.053 953.013 379.131 952.34 379.13H950.45C949.848 379.13 949.271 379.369 948.845 379.795C948.419 380.221 948.18 380.798 948.18 381.4C948.18 382.002 948.419 382.579 948.845 383.005C949.271 383.431 949.848 383.67 950.45 383.67H952.34C954.311 383.678 956.258 383.238 958.034 382.382C959.81 381.527 961.368 380.279 962.591 378.733C963.813 377.187 964.668 375.383 965.091 373.458C965.513 371.532 965.492 369.536 965.03 367.62L965.01 367.63Z" fill="#333333"/>
</g>
<g opacity="0.8">
<path opacity="0.5" d="M798.57 381.33C797.587 381.56 796.58 381.678 795.57 381.68H790.4C789.798 381.68 789.221 381.441 788.795 381.015C788.369 380.589 788.13 380.012 788.13 379.41C788.13 378.808 788.369 378.231 788.795 377.805C789.221 377.379 789.798 377.14 790.4 377.14H795.57C796.243 377.14 796.914 377.063 797.57 376.91C799.6 376.428 801.382 375.216 802.576 373.506C803.77 371.795 804.294 369.705 804.047 367.633C803.799 365.562 802.799 363.653 801.236 362.272C799.673 360.89 797.656 360.131 795.57 360.14H795.31C794.889 360.155 794.473 360.052 794.109 359.841C793.745 359.631 793.447 359.322 793.25 358.95C792.054 356.706 790.194 354.887 787.925 353.74C785.656 352.592 783.088 352.173 780.572 352.54C778.056 352.906 775.715 354.04 773.867 355.787C772.02 357.534 770.757 359.808 770.25 362.3C770.188 362.622 770.056 362.926 769.864 363.191C769.673 363.457 769.426 363.678 769.141 363.838C768.855 363.999 768.538 364.096 768.212 364.122C767.886 364.148 767.557 364.103 767.25 363.99C765.805 363.505 764.238 363.522 762.804 364.039C761.37 364.557 760.153 365.544 759.35 366.84C758.721 367.863 758.376 369.035 758.351 370.236C758.325 371.436 758.619 372.622 759.204 373.671C759.789 374.72 760.642 375.594 761.676 376.204C762.711 376.813 763.889 377.137 765.09 377.14H772.69C773.292 377.14 773.869 377.379 774.295 377.805C774.721 378.231 774.96 378.808 774.96 379.41C774.96 380.012 774.721 380.589 774.295 381.015C773.869 381.441 773.292 381.68 772.69 381.68H765.09C763.081 381.679 761.108 381.141 759.376 380.123C757.644 379.105 756.215 377.643 755.236 375.888C754.258 374.132 753.765 372.148 753.81 370.139C753.855 368.13 754.435 366.17 755.49 364.46C756.621 362.64 758.244 361.178 760.171 360.242C762.098 359.306 764.251 358.934 766.38 359.17C767.417 356.169 769.279 353.522 771.753 351.532C774.227 349.542 777.213 348.291 780.366 347.922C783.52 347.554 786.713 348.082 789.58 349.448C792.446 350.813 794.869 352.959 796.57 355.64C799.713 355.816 802.684 357.127 804.934 359.328C807.183 361.53 808.558 364.473 808.802 367.611C809.047 370.749 808.144 373.869 806.262 376.392C804.381 378.915 801.647 380.669 798.57 381.33Z" fill="#333333"/>
<path opacity="0.5" d="M782.21 381.09H785.41L778.56 397.63L780.2 385.71H777.15L779.56 372.5H785.79L782.21 381.09Z" fill="#333333"/>
</g>
<g opacity="0.8">
<path opacity="0.5" d="M311.29 358.79C310.69 358.787 310.115 358.547 309.691 358.122C309.268 357.696 309.03 357.12 309.03 356.52V349.95C309.009 349.64 309.053 349.329 309.157 349.036C309.262 348.744 309.425 348.475 309.637 348.248C309.85 348.022 310.107 347.841 310.392 347.717C310.677 347.593 310.984 347.529 311.295 347.529C311.606 347.529 311.913 347.593 312.198 347.717C312.484 347.841 312.74 348.022 312.953 348.248C313.165 348.475 313.328 348.744 313.433 349.036C313.537 349.329 313.581 349.64 313.56 349.95V356.52C313.56 357.122 313.321 357.699 312.895 358.125C312.469 358.551 311.892 358.79 311.29 358.79Z" fill="#333333"/>
<path opacity="0.5" d="M295.03 375.05H288.46C287.858 375.05 287.281 374.811 286.855 374.385C286.429 373.959 286.19 373.382 286.19 372.78C286.19 372.178 286.429 371.601 286.855 371.175C287.281 370.749 287.858 370.51 288.46 370.51H295.03C295.632 370.51 296.209 370.749 296.635 371.175C297.061 371.601 297.3 372.178 297.3 372.78C297.3 373.382 297.061 373.959 296.635 374.385C296.209 374.811 295.632 375.05 295.03 375.05Z" fill="#333333"/>
<path opacity="0.5" d="M311.29 397.88C310.69 397.877 310.115 397.637 309.691 397.212C309.268 396.786 309.03 396.21 309.03 395.61V389.04C309.068 388.465 309.323 387.927 309.744 387.533C310.165 387.14 310.719 386.921 311.295 386.921C311.871 386.921 312.425 387.14 312.846 387.533C313.267 387.927 313.522 388.465 313.56 389.04V395.61C313.56 396.212 313.321 396.789 312.895 397.215C312.469 397.641 311.892 397.88 311.29 397.88Z" fill="#333333"/>
<path opacity="0.5" d="M334.12 375.05H327.57C326.968 375.05 326.391 374.811 325.965 374.385C325.539 373.959 325.3 373.382 325.3 372.78C325.3 372.178 325.539 371.601 325.965 371.175C326.391 370.749 326.968 370.51 327.57 370.51H334.13C334.732 370.51 335.309 370.749 335.735 371.175C336.161 371.601 336.4 372.178 336.4 372.78C336.4 373.382 336.161 373.959 335.735 374.385C335.309 374.811 334.732 375.05 334.13 375.05H334.12Z" fill="#333333"/>
<path opacity="0.5" d="M311.29 384.79C308.917 384.79 306.597 384.086 304.623 382.768C302.65 381.449 301.112 379.575 300.203 377.382C299.295 375.189 299.058 372.777 299.521 370.449C299.984 368.121 301.126 365.983 302.805 364.305C304.483 362.626 306.621 361.484 308.949 361.021C311.277 360.558 313.689 360.795 315.882 361.703C318.075 362.612 319.949 364.15 321.268 366.123C322.586 368.097 323.29 370.417 323.29 372.79C323.29 375.973 322.026 379.025 319.775 381.275C317.525 383.526 314.473 384.79 311.29 384.79ZM311.29 365.31C309.813 365.312 308.37 365.752 307.143 366.574C305.916 367.396 304.96 368.563 304.396 369.928C303.832 371.293 303.685 372.795 303.975 374.243C304.264 375.692 304.976 377.022 306.021 378.066C307.067 379.109 308.398 379.82 309.846 380.107C311.295 380.395 312.797 380.246 314.161 379.68C315.525 379.115 316.691 378.157 317.512 376.929C318.332 375.701 318.77 374.257 318.77 372.78C318.767 370.798 317.978 368.898 316.576 367.497C315.173 366.097 313.272 365.31 311.29 365.31Z" fill="#333333"/>
<path opacity="0.5" d="M299.8 363.55C299.501 363.552 299.205 363.494 298.929 363.381C298.653 363.268 298.401 363.101 298.19 362.89L295.87 360.57C295.453 360.142 295.222 359.568 295.226 358.971C295.229 358.374 295.468 357.803 295.89 357.38C296.313 356.958 296.884 356.719 297.481 356.716C298.078 356.712 298.652 356.943 299.08 357.36L301.4 359.68C301.715 359.997 301.93 360.401 302.017 360.84C302.103 361.279 302.059 361.734 301.888 362.147C301.717 362.561 301.427 362.915 301.056 363.164C300.684 363.414 300.247 363.548 299.8 363.55Z" fill="#333333"/>
<path opacity="0.5" d="M297.47 388.87C297.023 388.868 296.586 388.734 296.214 388.484C295.843 388.235 295.553 387.881 295.382 387.467C295.211 387.054 295.167 386.599 295.253 386.16C295.34 385.721 295.555 385.317 295.87 385L298.19 382.68C298.4 382.465 298.65 382.293 298.927 382.176C299.203 382.058 299.501 381.996 299.801 381.994C300.102 381.993 300.4 382.05 300.678 382.164C300.956 382.279 301.208 382.447 301.421 382.659C301.633 382.872 301.801 383.124 301.916 383.402C302.03 383.68 302.088 383.978 302.086 384.279C302.084 384.579 302.022 384.877 301.904 385.153C301.787 385.43 301.615 385.68 301.4 385.89L299.08 388.23C298.647 388.645 298.07 388.875 297.47 388.87Z" fill="#333333"/>
<path opacity="0.5" d="M325.12 388.87C324.517 388.871 323.938 388.634 323.51 388.21L321.19 385.89C320.773 385.462 320.542 384.888 320.546 384.291C320.55 383.694 320.788 383.123 321.21 382.7C321.633 382.278 322.204 382.039 322.801 382.036C323.398 382.032 323.972 382.263 324.4 382.68L326.72 385C327.035 385.317 327.25 385.721 327.337 386.16C327.423 386.599 327.379 387.054 327.208 387.467C327.037 387.881 326.747 388.235 326.376 388.484C326.004 388.734 325.567 388.868 325.12 388.87Z" fill="#333333"/>
<path opacity="0.5" d="M322.79 363.55C322.343 363.548 321.906 363.414 321.534 363.164C321.163 362.915 320.873 362.561 320.702 362.147C320.531 361.734 320.487 361.279 320.573 360.84C320.66 360.401 320.875 359.997 321.19 359.68L323.51 357.36C323.938 356.943 324.512 356.712 325.109 356.716C325.706 356.719 326.277 356.958 326.7 357.38C327.122 357.803 327.361 358.374 327.364 358.971C327.368 359.568 327.137 360.142 326.72 360.57L324.4 362.89C323.972 363.314 323.393 363.551 322.79 363.55Z" fill="#333333"/>
</g>
<path d="M343.07 263.1H279.53C271.798 263.1 265.53 269.368 265.53 277.1C265.53 284.832 271.798 291.1 279.53 291.1H343.07C350.802 291.1 357.07 284.832 357.07 277.1C357.07 269.368 350.802 263.1 343.07 263.1Z" fill="#2881E2"/>
<path d="M499.68 263.1H436.14C428.408 263.1 422.14 269.368 422.14 277.1C422.14 284.832 428.408 291.1 436.14 291.1H499.68C507.412 291.1 513.68 284.832 513.68 277.1C513.68 269.368 507.412 263.1 499.68 263.1Z" fill="#2881E2"/>
<path d="M656.3 263.1H592.76C585.028 263.1 578.76 269.368 578.76 277.1C578.76 284.832 585.028 291.1 592.76 291.1H656.3C664.032 291.1 670.3 284.832 670.3 277.1C670.3 269.368 664.032 263.1 656.3 263.1Z" fill="#2881E2"/>
<path d="M812.92 263.1H749.38C741.648 263.1 735.38 269.368 735.38 277.1C735.38 284.832 741.648 291.1 749.38 291.1H812.92C820.652 291.1 826.92 284.832 826.92 277.1C826.92 269.368 820.652 263.1 812.92 263.1Z" fill="#2881E2"/>
<path d="M969.54 263.1H906C898.268 263.1 892 269.368 892 277.1C892 284.832 898.268 291.1 906 291.1H969.54C977.272 291.1 983.54 284.832 983.54 277.1C983.54 269.368 977.272 263.1 969.54 263.1Z" fill="#2881E2"/>
<path d="M422.14 368.82C422.14 368.82 392.3 338.87 382.96 338.44C377.59 338.2 371.39 335.51 367.09 333.28L365.99 332.7C366.99 331.39 366.46 330.7 365.94 330.33C365.768 330.22 365.584 330.133 365.39 330.07L294.25 273.87C294.92 272.8 291.14 260.87 291.14 260.87L287.36 248.44L279.36 238.09C279.36 238.09 281.59 230.85 279.36 227.23C277.13 223.61 277.59 215.09 276.03 194.44C274.47 173.79 266.03 172.51 266.03 172.51C266.03 172.51 233.33 150.81 229.57 151.45C226.05 152.04 221.35 145.23 220.73 144.31L220.66 144.21C220.66 144.21 220.66 144.3 220.6 144.45C220.653 143.67 220.673 142.88 220.66 142.08C220.66 141.79 220.66 141.51 220.66 141.22C221.276 137.797 222.251 134.448 223.57 131.23C223.85 130.54 224.13 129.89 224.41 129.29C230.892 127.493 236.803 124.061 241.576 119.322C246.35 114.584 249.826 108.698 251.67 102.23C251.73 102 251.78 101.77 251.84 101.54C253.45 101.74 255.08 101.83 256.66 101.89H256.96C256.452 100.806 256.093 99.6594 255.89 98.48H255.57C255.472 97.8942 255.409 97.3032 255.38 96.71C255.5 97.1 255.63 97.49 255.78 97.88C255.439 94.29 255.996 90.6715 257.4 87.35C259.23 82.7 262.04 78.47 264.05 73.89C265.557 70.8258 266.269 67.4316 266.12 64.02C266.007 62.7927 265.699 61.5912 265.21 60.46C265.206 60.5132 265.206 60.5667 265.21 60.62C265.21 60.87 265.21 61.12 265.21 61.38C264.848 60.1787 264.251 59.061 263.455 58.0913C262.658 57.1216 261.678 56.3191 260.57 55.73C258.77 54.85 256.66 54.63 254.99 53.52C250.06 50.26 250.34 44.98 243.77 43.28C238.49 41.91 232.9 41.93 227.57 40.5C216.07 37.44 206.35 39.35 195.23 43.29C186.91 46.62 178.79 50.89 172.51 57.22C166.23 63.55 161.95 72.22 162.51 81.04C162.589 83.8343 163.384 86.5616 164.82 88.96C166.15 91.04 168.15 92.77 168.82 95.13C169.62 97.85 168.51 100.73 168.5 103.57C168.5 106.15 170.31 109.17 172.74 109.13C173.076 109.158 173.414 109.128 173.74 109.04C174.596 108.755 175.353 108.231 175.92 107.53C176.07 107.87 176.22 108.21 176.38 108.53C176.76 109.34 177.18 110.14 177.63 110.91C177.56 111.34 177.48 111.77 177.38 112.18C176.451 115.372 174.711 118.27 172.33 120.59C171.728 120.632 171.146 120.817 170.63 121.13L170.14 121.37L153.92 129.55H152.14C146.9 129.48 131.79 129.36 129.47 130.29C126.65 131.44 99.38 133.63 99.38 133.63C99.38 133.63 84.85 134.48 85.6 155.63C85.6 155.63 80.11 173.56 78.48 176.54C76.85 179.52 67.22 208.61 67.22 208.61L55.99 264.23L54.65 325.82C54.65 325.82 54.65 332.82 54.43 341.13C53.94 354.95 53.25 366.41 52.29 368.4L53.29 368.8C53.2461 368.956 53.1926 369.11 53.13 369.26L54.01 369.06L60.24 371.38C60.24 371.38 44.87 388.83 55.99 393.23C61.48 395.4 74.49 401.69 86.26 407.5C83.9411 420.39 84.9987 433.66 89.33 446.02C90.8345 453.209 91.0882 460.604 90.08 467.88C88.31 478.95 90.23 515.57 90.23 515.57L90.08 579.73C90.08 579.73 92.45 620.89 94.53 629.73C96.61 638.57 90.08 642.23 90.08 642.23C90.08 642.23 94.35 666.42 99.53 669.63C99.43 670.1 99.31 670.63 99.18 671.1C98.1747 675.054 96.8675 678.926 95.27 682.68C91.71 691.05 93.94 697.01 93.94 697.01C93.94 697.01 94.23 708.8 115.57 711.21C136.91 713.62 136.03 698.71 134.25 693.04C133.16 689.57 133.95 678.79 134.74 670.93C134.8 670.3 134.86 669.69 134.92 669.11C136.23 668.27 137.92 666.48 139.92 662.66C144.06 654.43 139.92 634.56 136.92 628.03C133.92 621.5 136.62 614.4 136.62 614.4C136.62 614.4 133.36 577.78 136.62 574.67C139.88 571.56 139.29 557.67 139.29 557.67L144.63 528.99L150.85 516.79L152.63 490.1L157.63 466.54C157.63 466.54 159.7 464.54 161.48 445.82C163.26 427.1 165.63 433.04 165.63 433.04C164.75 445.53 171.56 451.78 171.56 451.78L173.42 484.43C173.42 484.43 175.71 508.83 179.5 514.8C183.29 520.77 179.5 528.14 179.5 528.14C179.5 528.14 180.75 551.41 179.65 558.23C178.55 565.05 184.01 580.66 184.01 580.66L185.49 608.76C185.49 608.76 176.6 634.02 180.75 642.26C184.9 650.5 182.83 660.14 182.83 660.14C183.016 660.693 183.316 661.2 183.71 661.63C183.6 662.06 183.49 662.5 183.39 662.96C182.78 665.966 182.346 669.004 182.09 672.06C182.09 672.06 184.31 675.06 194.24 678.73C204.17 682.4 201.95 688.67 203.43 692.65C204.91 696.63 214.99 700.16 234.85 699.31C254.71 698.46 242.11 684.13 242.11 684.13C242.11 684.13 231.74 669.51 228.18 667.52C226.95 666.83 225.66 664.58 224.48 661.89C224.26 661.39 224.05 660.89 223.84 660.35L224.67 660.14C224.67 660.14 229.96 618.14 226.11 614.14C222.26 610.14 227.38 582.91 227.38 582.91C227.38 582.91 229.96 573.84 228.78 571.28C227.6 568.72 229.96 558.79 229.96 558.79C229.96 558.79 231.74 531.79 228.47 525.58C225.2 519.37 230.25 482.99 230.25 482.99C230.25 482.99 232.33 448.93 237.57 436.73C238.57 434.49 239.13 429.73 239.49 423.53C242.39 422.12 244.19 421.04 244.19 421.04C244.19 421.04 250.19 340.14 246.63 330.13C244.469 323.723 243.434 316.99 243.57 310.23L250.46 285.75C250.46 285.75 254.91 297.88 257.8 299.37C260.69 300.86 264.25 306.83 264.25 306.83L294.7 331.1L318.27 348.34L339.17 365.59C339.632 361.584 340.915 357.717 342.94 354.23L343.68 354.5C347.54 355.89 352.44 357.61 351.24 356.91C350.58 356.52 350.93 354.33 351.96 351.46L352.85 352.32C357.223 356.352 361.803 360.153 366.57 363.71C388.68 380.59 400.29 361.71 400.29 361.71C400.29 361.71 411.41 371.35 416.89 373.48C422.37 375.61 422.14 368.82 422.14 368.82Z" fill="url(#paint0_linear)"/>
<path d="M184.86 670.23C184.86 670.23 186.98 673.23 196.41 676.85C205.84 680.47 203.73 686.71 205.14 690.66C206.55 694.61 216.14 698.12 235 697.27C253.86 696.42 241.9 682.21 241.9 682.21C241.9 682.21 232.04 667.7 228.66 665.73C227.49 665.05 226.27 662.81 225.14 660.15C223.644 656.358 222.372 652.481 221.33 648.54C221.33 648.54 190.21 652.77 187.96 655.87C187.022 657.518 186.395 659.325 186.11 661.2C185.526 664.184 185.109 667.199 184.86 670.23Z" fill="#F0F0F0"/>
<path d="M101.07 695.05C101.07 695.05 101.35 706.74 121.63 709.13C141.91 711.52 141.06 696.74 139.37 691.13C138.37 687.69 139.09 676.99 139.84 669.19C140.31 664.19 140.78 660.42 140.78 660.42C140.78 660.42 106.7 661.13 106.98 662.96C106.975 665.127 106.662 667.281 106.05 669.36C105.099 673.276 103.859 677.117 102.34 680.85C98.96 689.13 101.07 695.05 101.07 695.05Z" fill="#F0F0F0"/>
<path d="M341.57 346.43C342.15 347.63 343.57 349.67 347.04 353.07C351.19 357.064 355.546 360.839 360.09 364.38C381.09 381.13 392.09 362.38 392.09 362.38C392.09 362.38 402.65 371.96 407.87 374.07C413.09 376.18 412.87 369.42 412.87 369.42C412.87 369.42 384.57 339.74 375.69 339.31C370.58 339.07 364.69 336.41 360.61 334.19C357.61 332.55 355.55 331.19 355.55 331.19L347.93 338.54L341.29 344.94C341.29 344.94 341.02 345.23 341.57 346.43Z" fill="#EFB7B9"/>
<path opacity="0.1" d="M187.96 655.9C187.022 657.548 186.395 659.355 186.11 661.23C191.35 668.86 222.52 660.86 225.11 660.23C223.614 656.438 222.342 652.561 221.3 648.62C221.3 648.62 190.21 652.8 187.96 655.9Z" fill="black"/>
<path opacity="0.1" d="M106.05 669.34C106.248 669.507 106.466 669.649 106.7 669.76C111.77 672.06 137.7 669.7 137.7 669.7C138.077 669.772 138.465 669.762 138.838 669.671C139.211 669.579 139.559 669.408 139.86 669.17C140.33 664.17 140.8 660.4 140.8 660.4C140.8 660.4 106.72 661.11 107 662.94C106.988 665.108 106.668 667.262 106.05 669.34Z" fill="black"/>
<path d="M96.69 446.07C98.1241 453.208 98.3673 460.533 97.41 467.75C95.72 478.75 97.55 515.07 97.55 515.07L97.41 578.73C97.41 578.73 99.66 619.57 101.63 628.29C103.6 637.01 97.41 640.69 97.41 640.69C97.41 640.69 101.63 665.76 106.7 668.07C111.77 670.38 137.7 668.01 137.7 668.01C137.7 668.01 140.8 669.14 144.7 661.01C148.6 652.88 144.7 633.13 141.88 626.64C139.06 620.15 141.6 613.12 141.6 613.12C141.6 613.12 138.5 576.79 141.6 573.7C144.7 570.61 144.13 556.8 144.13 556.8L149.2 528.35L155.15 516.23L156.84 489.75L161.63 466.38C161.63 466.38 163.63 464.38 165.29 445.81C166.95 427.24 169.23 433.14 169.23 433.14C168.39 445.53 174.86 451.72 174.86 451.72L176.63 484.12C176.63 484.12 178.81 508.34 182.41 514.25C186.01 520.16 182.41 527.49 182.41 527.49C182.41 527.49 183.6 550.59 182.55 557.35C181.5 564.11 186.69 579.6 186.69 579.6L188.1 607.49C188.1 607.49 179.65 632.55 183.6 640.72C187.55 648.89 185.6 658.46 185.6 658.46C188.7 668.33 225.35 658.46 225.35 658.46C225.35 658.46 230.35 616.78 226.72 612.84C223.09 608.9 227.93 581.84 227.93 581.84C227.93 581.84 230.38 572.84 229.26 570.3C228.14 567.76 230.38 557.9 230.38 557.9C230.38 557.9 232.07 531.14 228.97 524.95C225.87 518.76 230.66 482.7 230.66 482.7C230.66 482.7 232.66 448.9 237.61 436.79C238.53 434.57 239.1 429.86 239.44 423.65C240.93 396.04 237.61 338.78 237.61 338.78L223.83 319.9L209.45 319.14L195.57 318.38L169.51 317L143.77 315.63L112.33 313.96C112.33 313.96 105.86 371.96 96.69 397.06C95.4186 400.558 94.4452 404.158 93.78 407.82C91.5698 420.614 92.5697 433.757 96.69 446.07Z" fill="#333333"/>
<path d="M173.31 125.23L184.51 152.69L208.8 156.69C208.8 156.69 221.69 161.13 221.05 150.14C220.72 144.32 222.52 138.14 224.28 133.62C225.169 131.318 226.208 129.076 227.39 126.91C227.39 126.91 177.54 98.81 180.29 108.32C180.887 110.406 180.928 112.613 180.41 114.72C178.92 120.98 173.31 125.23 173.31 125.23Z" fill="#EFB7B9"/>
<path d="M202.47 325.23H147.83L150.64 344.38H203.59L202.47 325.23Z" fill="#B07473"/>
<path d="M202.47 325.23H147.83L150.64 344.38H203.59L202.47 325.23Z" fill="#585858"/>
<path opacity="0.1" d="M341.57 346.43C342.15 347.63 343.57 349.67 347.04 353.07C348.89 347.64 353.04 339.74 357.24 337.07C358.529 336.356 359.661 335.39 360.57 334.23C357.57 332.59 355.51 331.23 355.51 331.23L347.89 338.58L341.57 346.43Z" fill="black"/>
<path d="M334.28 353.68C334.28 353.68 336.14 354.4 338.36 355.23C342.03 356.62 346.69 358.33 345.54 357.62C343.72 356.5 350.06 340.3 356.43 336.22C361.17 333.22 360.28 331.78 359.51 331.22C359.353 331.112 359.182 331.027 359 330.97L353.86 329.13L334.28 353.68Z" fill="#E1E7EF"/>
<path opacity="0.1" d="M180.29 108.36C180.887 110.446 180.928 112.653 180.41 114.76C184.477 122.435 191.043 128.492 199.02 131.928C206.997 135.365 215.908 135.976 224.28 133.66C225.169 131.358 226.208 129.116 227.39 126.95C227.39 126.95 177.57 98.85 180.29 108.36Z" fill="black"/>
<path d="M175.99 95.23C175.988 102.766 178.221 110.134 182.407 116.401C186.593 122.668 192.543 127.553 199.505 130.438C206.467 133.323 214.129 134.078 221.521 132.608C228.912 131.139 235.702 127.51 241.031 122.181C246.36 116.852 249.989 110.062 251.458 102.671C252.928 95.2789 252.173 87.6174 249.288 80.6552C246.403 73.6929 241.518 67.7426 235.251 63.5569C228.984 59.3711 221.616 57.138 214.08 57.14C209.069 57.1095 204.103 58.0739 199.468 59.9773C194.832 61.8806 190.621 64.6852 187.078 68.2282C183.535 71.7713 180.731 75.9825 178.827 80.6176C176.924 85.2526 175.959 90.2194 175.99 95.23Z" fill="#EFB7B9"/>
<path d="M142.47 325.3L166.76 326.39L194.76 327.64L208.42 328.26L209.42 319.12L220.21 224.54L223.8 152.93H214.08L187.26 148.49L177.73 144.93L165.29 140.23L155.15 160.94L151.77 255.78L143.77 315.61L142.47 325.3Z" fill="#E1E7EF"/>
<path opacity="0.1" d="M175.64 220.32C175.64 220.32 185.35 177.86 192.11 169.62C192.11 169.62 189.58 155.04 183.98 153.14C178.38 151.24 192.54 148.49 192.54 148.49L201.2 151.49L209.86 155.03C209.86 155.03 202.25 161.79 203.52 170.66C202.817 174.63 203.179 178.716 204.57 182.5C206.89 188.42 207.31 236.37 204.57 242.71C201.83 249.05 202.25 262.99 202.25 262.99L196.57 290.23L194.67 322.97L174.16 338.23L159.79 320.23L175.64 220.32Z" fill="black"/>
<path d="M174.79 219.47C174.79 219.47 184.51 177.01 191.27 168.77C191.27 168.77 188.73 154.2 183.14 152.3C177.55 150.4 191.69 147.65 191.69 147.65L200.35 150.65L209.01 154.19C209.01 154.19 201.41 160.95 202.68 169.82C201.965 173.783 202.31 177.864 203.68 181.65C206.01 187.56 206.43 235.52 203.68 241.85C200.93 248.18 201.36 262.13 201.36 262.13L195.66 289.38L193.75 322.12L173.26 337.33L158.9 319.38L174.79 219.47Z" fill="#2881E2"/>
<path opacity="0.1" d="M221.46 144.48L200.35 151.48C200.35 151.48 210.9 156.92 210.91 172.98C210.91 173 221.65 159.89 221.46 144.48Z" fill="black"/>
<path d="M221.46 143.63L200.35 150.63C200.35 150.63 210.9 156.07 210.91 172.12C210.91 172.15 221.65 159.05 221.46 143.63Z" fill="#E1E7EF"/>
<path opacity="0.1" d="M175.62 123.95C175.62 123.95 185.99 141.84 200.35 151.5C200.35 151.5 191.65 148.28 175.62 160.5C175.62 160.53 165.67 124.76 175.62 123.95Z" fill="black"/>
<path d="M175.62 123.11C175.62 123.11 185.99 140.99 200.35 150.66C200.35 150.66 191.65 147.44 175.62 159.66C175.62 159.69 165.67 123.92 175.62 123.11Z" fill="#E1E7EF"/>
<path opacity="0.1" d="M334.28 353.68C334.28 353.68 336.14 354.4 338.36 355.23C344.64 343.09 357.36 332.96 359.51 331.23C359.353 331.122 359.182 331.037 359 330.98L353.86 329.14L334.28 353.68Z" fill="black"/>
<path opacity="0.1" d="M191.69 383.82C192.33 397.97 200.14 424.17 200.14 424.17C209.96 437.77 231.7 427.79 239.41 423.63C240.9 396.02 237.58 338.76 237.58 338.76L223.8 319.88L209.42 319.12L220.21 224.54L223.8 152.93H218.43C216.69 160.21 213.95 172.51 214.43 175.53C215.13 179.9 207.8 223.42 207.8 223.42L198.74 278.86L196.26 293.97C197.08 296.5 196.47 307.25 195.54 318.38C195.27 321.49 194.99 324.64 194.71 327.64C193.71 337.91 192.71 346.5 192.71 346.5C191.48 356.23 191.69 383.82 191.69 383.82Z" fill="black"/>
<path d="M193.38 382.97C194.02 397.13 201.83 423.32 201.83 423.32C213.83 440.01 243.83 421.21 243.83 421.21C243.83 421.21 249.53 340.94 246.15 331.01C244.086 324.668 243.089 318.028 243.2 311.36L249.74 287.07C249.74 287.07 253.97 299.07 256.74 300.59C259.51 302.11 262.86 307.98 262.86 307.98L291.8 332.06L314.19 349.17L334.05 366.28C335.53 348.54 358.98 331.01 358.98 331.01L291.4 275.23C292.03 274.17 288.4 262.34 288.4 262.34L284.81 250.01L277.21 239.74C277.21 239.74 279.32 232.56 277.21 228.97C275.1 225.38 275.52 216.97 274.04 196.44C272.56 175.91 264.57 174.69 264.57 174.69C264.57 174.69 233.57 153.14 229.93 153.77C226.58 154.37 222.11 147.61 221.52 146.69L221.46 146.59C221.46 146.59 215.46 170.32 216.13 174.69C216.8 179.06 209.5 222.57 209.5 222.57L200.44 278.01L197.96 293.13C199.8 298.79 194.44 345.65 194.44 345.65C193.17 355.37 193.38 382.97 193.38 382.97Z" fill="#333333"/>
<path opacity="0.1" d="M93.78 407.82C105.89 414.06 117.12 420.01 117.12 420.01C117.12 420.01 135.86 426.21 143.46 391.01L165.29 331.16C165.29 331.16 165.86 329.38 166.76 326.4C167.5 323.97 168.46 320.73 169.49 317.01C173.78 301.76 179.49 278.47 177.4 269.33V268.62L176.97 186.81C176.97 186.81 179.28 148.35 177.84 145.18C177.81 145.097 177.773 145.017 177.73 144.94L165.29 140.23L155.15 160.94L151.77 255.78L143.77 315.61L112.33 313.94C112.33 313.94 105.86 371.94 96.69 397.04C95.4175 400.545 94.4441 404.151 93.78 407.82Z" fill="black"/>
<path d="M65.01 393.68C75.58 398.04 115.43 419.16 115.43 419.16C115.43 419.16 134.17 425.37 141.77 390.16L163.57 330.31C163.57 330.31 178.92 282.56 175.68 268.48V267.77L175.25 185.95C175.25 185.95 177.56 147.5 176.12 144.33C174.77 141.33 173.12 132.42 173.83 124.84C173.88 124.44 173.92 124.04 173.97 123.64L173.49 123.9L158.07 132.01H156.38C151.38 131.94 137.04 131.82 134.84 132.75C132.16 133.88 106.25 136.06 106.25 136.06C106.25 136.06 92.45 136.9 93.16 157.92C93.16 157.92 87.94 175.71 86.4 178.66C84.86 181.61 75.69 210.48 75.69 210.48L64.98 265.7L63.72 326.81C63.72 326.81 63.58 365.81 61.47 369.06L69.07 372.06C69.07 372.06 54.45 389.31 65.01 393.68Z" fill="#333333"/>
<path d="M102.48 359.03L107.27 365.37C107.27 365.37 136.56 418.46 103.89 410.72C71.22 402.98 76 376.23 76 376.23L78 357.64L102.48 359.03Z" fill="#EFB7B9"/>
<path opacity="0.1" d="M143.74 645.62C143.04 645.48 131.63 640.69 123.74 640.69C115.85 640.69 105.29 639.84 106.56 641.96C107.83 644.08 123.04 644.35 127.4 646.46C131.76 648.57 141.06 654.35 141.91 654.63C142.76 654.91 143.74 645.62 143.74 645.62Z" fill="black"/>
<path opacity="0.1" d="M222.32 621.68C222.18 622.52 205.42 641.34 196.13 640.52C186.84 639.7 222.32 621.68 222.32 621.68Z" fill="black"/>
<path opacity="0.1" d="M217.39 576.75C217.39 576.75 199.39 622.52 193.59 624.92C187.79 627.32 186.97 619.28 190.07 617.03C193.17 614.78 202.75 599.99 217.39 576.75Z" fill="black"/>
<path opacity="0.1" d="M124.73 561.68C124.73 561.68 121.73 578.58 129.23 589.57C136.73 600.56 124.73 561.68 124.73 561.68Z" fill="black"/>
<path opacity="0.1" d="M172.05 408.46C172.37 408.2 145.15 407.05 145.15 407.05C145.15 407.05 157.4 420.43 172.05 408.46Z" fill="black"/>
<path opacity="0.1" d="M168.67 420.15L152.19 421.7C152.19 421.7 157.96 428.74 168.67 420.15Z" fill="black"/>
<path opacity="0.1" d="M266.12 244.54C266.12 244.54 280.91 246.54 282.32 250.88C283.73 255.22 266.12 244.54 266.12 244.54Z" fill="black"/>
<path opacity="0.1" d="M292.31 280.73C291.19 280.31 282.03 277.63 275.56 279.32C269.09 281.01 259.92 276.22 259.92 276.22C259.92 276.22 250.63 275.94 252.46 277.22C254.29 278.5 259.78 277.92 262.88 279.76C265.98 281.6 274.13 283.14 276.18 282.29C278.23 281.44 292.31 280.73 292.31 280.73Z" fill="black"/>
<path d="M200.44 278.01L200.78 285.66C200.78 285.66 226.69 222.01 233.16 208.34C239.63 194.67 235.99 164.97 235.99 164.97L232.32 164.12L221.57 146.69L221.51 146.59C221.51 146.59 215.51 170.32 216.18 174.69C216.85 179.06 209.55 222.57 209.55 222.57L200.44 278.01Z" fill="#67647E"/>
<path d="M148.57 144.69C148.57 144.69 159.22 254.23 175.71 267.77L175.28 185.95C175.28 185.95 177.59 147.5 176.15 144.33C174.8 141.33 173.15 132.42 173.86 124.84L173.52 123.9L158.1 132.01H156.41L155.41 146.62L148.57 144.69Z" fill="#67647E"/>
<path d="M200.44 278.01L200.78 285.66C200.78 285.66 226.69 222.01 233.16 208.34C239.63 194.67 235.99 164.97 235.99 164.97L232.32 164.12L221.57 146.69L221.51 146.59C221.51 146.59 215.51 170.32 216.18 174.69C216.85 179.06 209.55 222.57 209.55 222.57L200.44 278.01Z" fill="#434343"/>
<path d="M148.57 144.69C148.57 144.69 159.22 254.23 175.71 267.77L175.28 185.95C175.28 185.95 177.59 147.5 176.15 144.33C174.8 141.33 173.15 132.42 173.86 124.84L173.52 123.9L158.1 132.01H156.41L155.41 146.62L148.57 144.69Z" fill="#464646"/>
<path d="M203.6 299.23C205.34 299.23 206.75 297.82 206.75 296.08C206.75 294.34 205.34 292.93 203.6 292.93C201.86 292.93 200.45 294.34 200.45 296.08C200.45 297.82 201.86 299.23 203.6 299.23Z" fill="#2E2E2E"/>
<path d="M200.44 345.84C202.18 345.84 203.59 344.43 203.59 342.69C203.59 340.95 202.18 339.54 200.44 339.54C198.7 339.54 197.29 340.95 197.29 342.69C197.29 344.43 198.7 345.84 200.44 345.84Z" fill="#444053"/>
<path opacity="0.1" d="M175.99 95.23C175.982 100.716 177.166 106.137 179.46 111.12L179.96 110.52C186.11 102.84 187.42 92.15 192.96 83.97C194.96 81.05 197.53 78.41 200.83 77.33C204.13 76.25 208.15 77.08 210.18 79.95C211.46 81.77 211.84 84.15 213.18 85.95C215.76 89.34 220.71 89.25 224.86 88.62C229.01 87.99 233.73 87.28 236.93 90.05C240.13 92.82 240.36 97.58 242.93 100.79C244.93 103.24 247.85 104.36 250.98 104.89C252.312 99.6643 252.518 94.2154 251.586 88.9038C250.655 83.5923 248.606 78.5391 245.575 74.0786C242.544 69.6181 238.601 65.852 234.006 63.0294C229.411 60.2068 224.269 58.3921 218.92 57.7053C213.572 57.0186 208.138 57.4753 202.979 59.0455C197.82 60.6157 193.053 63.2634 188.994 66.8136C184.934 70.3637 181.675 74.7353 179.432 79.6392C177.188 84.5431 176.012 89.8674 175.98 95.26L175.99 95.23Z" fill="black"/>
<path d="M197.38 46.4C189.48 49.71 181.76 53.94 175.79 60.23C169.82 66.52 165.79 75.09 166.24 83.86C166.319 86.6206 167.074 89.3196 168.44 91.72C169.7 93.78 171.6 95.5 172.27 97.84C173.03 100.54 171.97 103.4 171.97 106.21C171.97 109.02 174.04 112.37 176.68 111.63C177.675 111.256 178.528 110.582 179.12 109.7C185.26 102.03 186.57 91.33 192.06 83.16C194.06 80.24 196.63 77.6 199.93 76.52C203.23 75.44 207.26 76.26 209.29 79.14C210.57 80.96 210.94 83.34 212.29 85.14C214.86 88.53 219.82 88.44 223.96 87.81C228.1 87.18 232.83 86.47 236.04 89.23C239.25 91.99 239.47 96.76 242.04 99.97C245.19 103.88 250.75 104.39 255.68 104.59C253.68 100.1 254.38 94.76 256.12 90.15C257.86 85.54 260.53 81.34 262.44 76.8C263.886 73.7421 264.572 70.3801 264.44 67C264.15 63.65 262.44 60.28 259.5 58.78C257.79 57.9 255.78 57.68 254.19 56.58C249.5 53.35 249.77 48.1 243.53 46.42C238.53 45.06 233.2 45.08 228.14 43.67C217.18 40.59 207.95 42.49 197.38 46.4Z" fill="#333333"/>
<path opacity="0.1" d="M86.28 363.54C86.28 363.54 77.69 371.99 76.56 371.85C75.43 371.71 73.75 364.24 73.75 364.24L86.28 363.54Z" fill="black"/>
<path d="M85.44 362.69C85.44 362.69 76.85 371.14 75.72 371C74.59 370.86 72.9 363.4 72.9 363.4L85.44 362.69Z" fill="#E1E7EF"/>
<path opacity="0.1" d="M62.34 369.88C62.34 369.88 98.96 361.43 108.11 365.37C108.11 365.37 104.73 344.67 105.29 340.87C105.85 337.07 105.15 323.82 105.15 323.82C105.15 323.82 103.04 299.18 105.86 292.28C108.68 285.38 107.12 267.07 107.12 267.07L65.44 286.92C65.44 286.92 64.88 364.38 62.34 369.88Z" fill="black"/>
<path d="M61.5 369.03C61.5 369.03 98.11 360.58 107.27 364.52C107.27 364.52 103.89 343.82 104.45 340.02C105.01 336.22 104.31 323.02 104.31 323.02C104.31 323.02 102.2 298.37 105.01 291.47C107.82 284.57 106.28 266.27 106.28 266.27L64.57 286.08C64.57 286.08 64.03 363.54 61.5 369.03Z" fill="#333333"/>
<g opacity="0.1">
<path opacity="0.1" d="M254.87 100.56C253.16 96.21 253.87 91.14 255.56 86.74C257.3 82.12 259.97 77.93 261.88 73.39C263.326 70.3321 264.012 66.9701 263.88 63.59C263.884 63.5367 263.884 63.4832 263.88 63.43C264.347 64.5592 264.641 65.7528 264.75 66.97C264.882 70.3501 264.196 73.7121 262.75 76.77C260.84 81.31 258.18 85.5 256.44 90.12C255.089 93.4244 254.551 97.0045 254.87 100.56Z" fill="black"/>
<path opacity="0.1" d="M176.11 108.23C177.106 107.854 177.962 107.18 178.56 106.3C184.7 98.63 186.01 87.93 191.5 79.76C193.5 76.84 196.07 74.2 199.36 73.12C202.65 72.04 206.69 72.86 208.72 75.74C210.01 77.56 210.37 79.94 211.72 81.74C214.3 85.13 219.25 85.04 223.4 84.41C227.55 83.78 232.27 83.07 235.48 85.83C238.69 88.59 238.91 93.36 241.48 96.57C244.59 100.44 250.06 100.97 254.95 101.18C255.135 102.349 255.471 103.488 255.95 104.57C251.01 104.37 245.45 103.86 242.3 99.95C239.72 96.74 239.39 91.89 236.3 89.21C233.21 86.53 228.36 87.15 224.22 87.79C220.08 88.43 215.12 88.51 212.55 85.12C211.21 83.35 210.84 80.97 209.55 79.12C207.55 76.24 203.48 75.42 200.19 76.5C196.9 77.58 194.29 80.22 192.32 83.14C186.83 91.31 185.52 102.01 179.38 109.68C178.788 110.562 177.934 111.236 176.94 111.61C174.3 112.35 172.22 109 172.23 106.19V106.06C173.1 107.62 174.5 108.7 176.11 108.23Z" fill="black"/>
<path opacity="0.1" d="M167.87 88.34C169.14 90.4 171.04 92.12 171.7 94.46C171.881 95.1112 171.972 95.7841 171.97 96.46C171.11 94.78 169.72 93.36 168.72 91.74C167.674 89.9627 166.994 87.9941 166.72 85.95C167.027 86.7813 167.412 87.5815 167.87 88.34Z" fill="black"/>
</g>
<path opacity="0.1" d="M808.62 673.05C852.681 673.05 888.4 667.57 888.4 660.81C888.4 654.05 852.681 648.57 808.62 648.57C764.559 648.57 728.84 654.05 728.84 660.81C728.84 667.57 764.559 673.05 808.62 673.05Z" fill="black"/>
<path opacity="0.1" d="M389.42 790.46C411.213 790.46 428.88 787.747 428.88 784.4C428.88 781.053 411.213 778.34 389.42 778.34C367.627 778.34 349.96 781.053 349.96 784.4C349.96 787.747 367.627 790.46 389.42 790.46Z" fill="black"/>
<path opacity="0.1" d="M641.1 759.19C662.893 759.19 680.56 756.477 680.56 753.13C680.56 749.783 662.893 747.07 641.1 747.07C619.307 747.07 601.64 749.783 601.64 753.13C601.64 756.477 619.307 759.19 641.1 759.19Z" fill="black"/>
<path opacity="0.1" d="M459.31 715.45C481.103 715.45 498.77 712.737 498.77 709.39C498.77 706.043 481.103 703.33 459.31 703.33C437.517 703.33 419.85 706.043 419.85 709.39C419.85 712.737 437.517 715.45 459.31 715.45Z" fill="black"/>
<path opacity="0.1" d="M577.51 679.12C599.303 679.12 616.97 676.407 616.97 673.06C616.97 669.713 599.303 667 577.51 667C555.717 667 538.05 669.713 538.05 673.06C538.05 676.407 555.717 679.12 577.51 679.12Z" fill="black"/>
<path d="M1012.07 604.23C1012.07 604.23 1018.71 612.92 1009 626.03C999.29 639.14 991.29 650.23 994.57 658.36C994.57 658.36 1009.21 634.01 1021.14 633.67C1033.07 633.33 1025.18 618.85 1012.07 604.23Z" fill="#F0F0F0"/>
<path opacity="0.1" d="M1012.07 604.23C1012.65 605.072 1013.11 605.991 1013.43 606.96C1025.06 620.62 1031.26 633.38 1020.07 633.7C1009.66 633.99 997.16 652.62 994.17 657.32C994.27 657.683 994.391 658.04 994.53 658.39C994.53 658.39 1009.17 634.04 1021.1 633.7C1033.03 633.36 1025.18 618.85 1012.07 604.23Z" fill="black"/>
<path d="M1024.42 615.23C1024.42 618.29 1024.07 620.77 1023.65 620.77C1023.23 620.77 1022.88 618.29 1022.88 615.23C1022.88 612.17 1023.31 613.62 1023.74 613.62C1024.17 613.62 1024.42 612.23 1024.42 615.23Z" fill="#FFD037"/>
<path d="M1028.65 618.92C1025.97 620.39 1023.65 621.27 1023.43 620.92C1023.21 620.57 1025.24 619.06 1027.92 617.6C1030.6 616.14 1029.55 617.2 1029.75 617.6C1029.95 618 1031.34 617.46 1028.65 618.92Z" fill="#FFD037"/>
<path d="M976.98 604.23C976.98 604.23 970.34 612.92 980.05 626.03C989.76 639.14 997.76 650.23 994.57 658.36C994.57 658.36 979.92 634.01 968 633.67C956.08 633.33 963.87 618.85 976.98 604.23Z" fill="#F0F0F0"/>
<path opacity="0.1" d="M976.98 604.23C976.403 605.071 975.948 605.99 975.63 606.96C964 620.62 957.8 633.38 968.98 633.7C979.39 633.99 991.89 652.62 994.88 657.32C994.783 657.683 994.666 658.04 994.53 658.39C994.53 658.39 979.88 634.04 967.96 633.7C956.04 633.36 963.87 618.85 976.98 604.23Z" fill="black"/>
<path d="M964.64 615.23C964.64 618.29 964.98 620.77 965.4 620.77C965.82 620.77 966.17 618.29 966.17 615.23C966.17 612.17 965.74 613.62 965.32 613.62C964.9 613.62 964.64 612.23 964.64 615.23Z" fill="#FFD037"/>
<path d="M960.4 618.92C963.08 620.39 965.4 621.27 965.63 620.92C965.86 620.57 963.82 619.06 961.13 617.6C958.44 616.14 959.51 617.2 959.31 617.6C959.11 618 957.72 617.46 960.4 618.92Z" fill="#FFD037"/>
<path opacity="0.1" d="M994.53 724.81C1032.89 724.81 1063.98 720.037 1063.98 714.15C1063.98 708.263 1032.89 703.49 994.53 703.49C956.174 703.49 925.08 708.263 925.08 714.15C925.08 720.037 956.174 724.81 994.53 724.81Z" fill="black"/>
<path d="M1030.27 646.66L1029.94 649.37L1029.47 653.2L1029.28 654.8L1028.81 658.63L1028.61 660.23L1028.15 664.06L1022.83 707.62C1022.36 711.51 1016 714.54 1008.33 714.54H980.72C973.05 714.54 966.72 711.54 966.23 707.62L960.91 664.06L960.44 660.23L960.25 658.63L959.77 654.8L959.57 653.23L959.11 649.4L958.77 646.69C958.51 644.49 961.94 642.63 966.28 642.63H1022.76C1027.1 642.6 1030.57 644.46 1030.27 646.66Z" fill="#2881E2"/>
<path d="M1029.94 649.37L1029.47 653.19H959.58L959.12 649.37H1029.94Z" fill="#F0F0F0"/>
<path d="M1029.28 654.79L1028.82 658.63H960.25L959.78 654.79H1029.28Z" fill="#F0F0F0"/>
<path d="M1028.61 660.22L1028.15 664.05H960.91L960.45 660.22H1028.61Z" fill="#F0F0F0"/>
</g>
<defs>
<linearGradient id="paint0_linear" x1="237.05" y1="711.43" x2="237.05" y2="38.93" gradientUnits="userSpaceOnUse">
<stop stop-color="#808080" stop-opacity="0.25"/>
<stop offset="0.54" stop-color="#808080" stop-opacity="0.12"/>
<stop offset="1" stop-color="#808080" stop-opacity="0.1"/>
</linearGradient>
<clipPath id="clip0">
<rect width="1101.15" height="790.45" fill="white"/>
</clipPath>
</defs>
</svg>
