<svg width="1008" height="744" viewBox="0 0 1008 744" fill="none" xmlns="http://www.w3.org/2000/svg">
<g clip-path="url(#clip0)">
<path opacity="0.1" d="M942.55 473.27C908.55 516.44 921.78 579.52 943.36 630.03C950.58 646.94 958.76 664.84 955.71 682.97C951.98 705.15 932.19 721.37 911.41 729.97C873.53 745.64 828.19 741.9 793.41 720.25C763.33 701.54 741.78 671.1 711.19 653.25C659.99 623.36 594.81 634.65 539.19 655.25C499.85 669.82 456.85 688.76 417.76 673.54C390.26 662.83 371.25 636.75 360.89 609.11C355.89 595.77 352.26 581.32 342.71 570.74C337.03 564.45 329.62 559.99 322.03 556.23C252.72 521.86 165.18 540.23 97.8601 502.15C52.3901 476.41 23.2901 427.85 10.4001 377.22C-2.48993 326.59 -0.999936 273.46 2.27006 221.32C4.60006 184.26 8.77007 144.7 32.4501 116.1C57.4501 85.84 100.45 74.59 139.34 80.34C178.23 86.09 213.41 106.59 244.4 130.73C283.12 160.9 319.04 198.47 366.58 210.73C399 219.02 433 214.46 466.41 212.88C522.24 210.24 578.09 216.11 633.6 222.52C686.75 228.66 740.28 235.43 790.92 252.72C826.75 264.96 855.48 287.17 889.31 302.72C911.36 312.83 935.41 315.63 956.31 328.51C982.03 344.38 1005.61 371.98 999.02 404.28C992.75 434.96 960.57 450.36 942.55 473.27Z" fill="#333333"/>
<path opacity="0.1" d="M211.95 743.76C328.051 743.76 422.17 729.429 422.17 711.75C422.17 694.071 328.051 679.74 211.95 679.74C95.8487 679.74 1.72998 694.071 1.72998 711.75C1.72998 729.429 95.8487 743.76 211.95 743.76Z" fill="#333333"/>
<path d="M887.38 99.48C914.851 99.48 937.12 77.2106 937.12 49.74C937.12 22.2694 914.851 0 887.38 0C859.909 0 837.64 22.2694 837.64 49.74C837.64 77.2106 859.909 99.48 887.38 99.48Z" fill="#FFAD00"/>
<path d="M115.33 514.12C115.33 514.12 120.5 520.88 112.95 531.12C105.4 541.36 99.1699 549.88 101.68 556.25C101.68 556.25 113.07 537.31 122.35 537.04C131.63 536.77 125.53 525.51 115.33 514.12Z" fill="#333333"/>
<path opacity="0.1" d="M115.33 514.12C115.782 514.773 116.139 515.487 116.39 516.24C125.39 526.87 130.26 536.79 121.56 537.04C113.46 537.27 103.74 551.76 101.41 555.42C101.488 555.702 101.581 555.979 101.69 556.25C101.69 556.25 113.08 537.31 122.36 537.04C131.64 536.77 125.53 525.51 115.33 514.12Z" fill="black"/>
<path d="M124.93 522.73C124.93 525.11 124.66 527.04 124.33 527.04C124 527.04 123.73 525.11 123.73 522.73C123.73 520.35 124.06 521.47 124.39 521.47C124.72 521.47 124.93 520.35 124.93 522.73Z" fill="#FFD037"/>
<path d="M128.23 525.57C126.14 526.71 124.32 527.4 124.16 527.11C124 526.82 125.57 525.66 127.66 524.53C129.75 523.4 128.92 524.22 129.08 524.53C129.24 524.84 130.32 524.43 128.23 525.57Z" fill="#FFD037"/>
<path d="M87.9999 514.12C87.9999 514.12 82.8299 520.88 90.3799 531.12C97.9299 541.36 104.2 549.88 101.68 556.25C101.68 556.25 90.2899 537.31 81.0099 537.04C71.7299 536.77 77.8399 525.51 87.9999 514.12Z" fill="#333333"/>
<path opacity="0.1" d="M88.0001 514.12C87.548 514.773 87.1911 515.487 86.9401 516.24C77.9401 526.87 73.0701 536.79 81.7701 537.04C89.8701 537.27 99.5901 551.76 101.92 555.42C101.842 555.702 101.749 555.979 101.64 556.25C101.64 556.25 90.2901 537.3 81.0001 537.04C71.7101 536.78 77.8401 525.51 88.0001 514.12Z" fill="black"/>
<path d="M78.4299 522.73C78.4299 525.11 78.6999 527.04 79.0299 527.04C79.3599 527.04 79.6299 525.11 79.6299 522.73C79.6299 520.35 79.2999 521.47 78.9699 521.47C78.6399 521.47 78.4299 520.35 78.4299 522.73Z" fill="#FFD037"/>
<path d="M75.14 525.57C77.23 526.71 79.05 527.4 79.21 527.11C79.37 526.82 77.8 525.66 75.71 524.53C73.62 523.4 74.4499 524.22 74.2899 524.53C74.1299 524.84 73 524.43 75.14 525.57Z" fill="#FFD037"/>
<path d="M80.0801 555.36C80.0801 555.36 94.5301 554.92 98.8801 551.81C103.23 548.7 121.1 545.01 122.18 549.98C123.26 554.95 143.89 574.71 127.58 574.84C111.27 574.97 89.6901 572.3 85.3401 569.65C80.9901 567 80.0801 555.36 80.0801 555.36Z" fill="#A8A8A8"/>
<path opacity="0.2" d="M127.87 573.12C111.56 573.25 89.9801 570.58 85.6301 567.93C82.3201 565.93 81.0001 558.68 80.5601 555.34H80.0801C80.0801 555.34 80.9901 566.99 85.3401 569.64C89.6901 572.29 111.27 574.96 127.58 574.83C132.29 574.83 133.91 573.12 133.82 570.64C133.17 572.15 131.37 573.09 127.87 573.12Z" fill="black"/>
<path d="M599.11 115.52H401.48V182.2H599.11V115.52Z" fill="#909090"/>
<path opacity="0.4" d="M465.75 118.08H415.5V179.45H465.75V118.08Z" fill="white"/>
<path d="M455.61 136.44H426.13V160.12H455.61V136.44Z" fill="#F0F0F0"/>
<path opacity="0.4" d="M526.63 118.08H476.38V179.45H526.63V118.08Z" fill="white"/>
<path d="M516.49 136.44H487.01V160.12H516.49V136.44Z" fill="#F0F0F0"/>
<path opacity="0.4" d="M587.51 118.08H537.26V179.45H587.51V118.08Z" fill="white"/>
<path d="M577.37 136.44H547.89V160.12H577.37V136.44Z" fill="#F0F0F0"/>
<path opacity="0.1" d="M599.12 115.52V120.52H402.6H401.49V115.52H599.12Z" fill="black"/>
<path d="M589.67 77.06L563.36 56.77H435.64L411.38 76.88H411.51C403.78 80.65 387.2 86.88 367.64 82.95C367.64 82.95 368.64 117.75 402.64 117.75H600.4C600.4 117.75 628.82 119.03 632.97 82.95C618.27 85.0742 603.269 83.0336 589.67 77.06V77.06Z" fill="#333333"/>
<path d="M643.65 251.74H364.35V345.98H643.65V251.74Z" fill="#909090"/>
<path opacity="0.4" d="M455.17 247.64H384.15V334.37H455.17V247.64Z" fill="white"/>
<path d="M440.83 273.59H399.17V307.05H440.83V273.59Z" fill="#F0F0F0"/>
<path opacity="0.4" d="M541.21 247.64H470.19V334.37H541.21V247.64Z" fill="white"/>
<path d="M526.88 273.59H485.22V307.05H526.88V273.59Z" fill="#F0F0F0"/>
<path opacity="0.4" d="M627.26 247.64H556.24V334.37H627.26V247.64Z" fill="white"/>
<path d="M612.92 273.59H571.26V307.05H612.92V273.59Z" fill="#F0F0F0"/>
<path d="M677.1 449.77H337.71V568.59H677.1V449.77Z" fill="#333333"/>
<path d="M677.1 449.77H337.71V568.59H677.1V449.77Z" fill="#B7B7B7"/>
<path d="M475.65 449.77H373.22V565.86H475.65V449.77Z" fill="#909090"/>
<path opacity="0.4" d="M455.17 449.77H393.71V565.86H455.17V449.77Z" fill="white"/>
<path d="M438.1 466.85H407.37V549.48H438.1V466.85Z" fill="#F0F0F0"/>
<path d="M640.23 449.77H537.8V565.86H640.23V449.77Z" fill="#909090"/>
<path opacity="0.4" d="M619.75 449.77H558.29V565.86H619.75V449.77Z" fill="white"/>
<path d="M602.67 466.85H571.94V549.48H602.67V466.85Z" fill="#F0F0F0"/>
<path d="M720.81 563.13V449.78C729.81 449.63 781.01 445.66 789.1 375.34C789.1 375.34 744.79 384.08 696.57 362.78L640.23 319.34H367.08L315.18 362.34H315.46C298.93 370.4 263.46 383.68 221.63 375.34C221.63 375.34 223.55 444.79 289.24 449.51V563.13H720.81ZM289.24 563.13H720.81H289.24ZM696.91 563.13H313.13H696.91ZM313.13 563.13V449.77H696.91V563.13" fill="#333333"/>
<path opacity="0.1" d="M643.65 251.74H364.35V263.84H643.65V251.74Z" fill="black"/>
<path d="M636.56 199.56L598.75 168.82H401.37L366.7 199.26H366.9C355.2 204.97 330.12 214.36 300.51 208.44C300.51 208.44 301.96 261.11 353.42 261.11H652.75C652.75 261.11 695.75 263.04 702.04 208.44C702 208.44 670.68 214.63 636.56 199.56Z" fill="#333333"/>
<path opacity="0.1" d="M676.76 449.43H337.37V452.88H676.76V449.43Z" fill="black"/>
<path opacity="0.1" d="M315.52 362.71H696.57C696.57 362.71 532 376.53 315.52 362.71Z" fill="black"/>
<path opacity="0.1" d="M364 198.81H636.48C636.48 198.81 518.8 212.64 364 198.81Z" fill="black"/>
<path opacity="0.1" d="M411.12 76.58H590C590 76.58 512.77 90.41 411.12 76.58Z" fill="black"/>
<path d="M1008 562.14H58.29V587.75H1008V562.14Z" fill="#909090"/>
<path d="M132.52 347.42L138.89 365.54L134 395.96C134 395.96 126.61 420.23 127.35 431.96C128.09 443.69 127.35 459.91 127.35 459.91C127.35 459.91 109.61 492.27 124.35 505.51C127.78 508.58 130.66 507.97 133.05 505.21C135.453 506.543 137.927 507.744 140.46 508.81L128.05 557L116.23 580.54C116.23 580.54 91.14 601.88 81.53 646.76C81.53 646.76 71.95 676.65 65.84 685.57C65.5617 685.988 65.2578 686.389 64.93 686.77C63.9732 685.248 63.0987 683.676 62.31 682.06L51.23 711.48C51.23 711.48 73.4 723.98 88.92 729.13C104.44 734.28 122.18 728.39 127.35 721.78C132.52 715.17 117 707.78 105.92 703.39C100.54 701.25 97.61 696.17 96 691.5C95.86 690.06 95.74 688.44 95.69 686.69C95.45 678.34 96.69 667.07 103.69 658.52C116.27 643.08 135.48 604.88 135.48 604.88C135.48 604.88 154.69 584.29 159.13 576.2L185.74 531.78C200.5 548.46 215.29 587.88 215.29 587.88L221.2 623.88C221.2 623.88 240.41 675.36 246.33 680.51C246.5 680.65 246.66 680.82 246.82 680.98L246.97 681.14L247.32 681.55L247.46 681.73C247.61 681.92 247.77 682.13 247.92 682.34L248.03 682.5L248.39 683.04L248.56 683.31L248.87 683.84L249.02 684.09L249.44 684.87L249.59 685.16L249.88 685.74L250.05 686.08L250.35 686.72L250.47 686.99L250.86 687.89L251.01 688.24L251.27 688.89L251.41 689.25L251.74 690.1L251.82 690.31L252.16 691.24L252.28 691.59L252.54 692.33L252.65 692.64L252.99 693.64V693.78L253.28 694.7L253.38 695.01L253.64 695.85L253.7 696.06L254.01 697.06L254.07 697.27L254.3 698.09L254.38 698.39L254.59 699.17L254.65 699.39L254.89 700.27L255 700.7L255.11 701.13L255.24 701.65V701.79C255.41 702.47 255.57 703.11 255.71 703.69L255.88 704.43L255.96 704.78V704.87C254.875 704.151 253.842 703.356 252.87 702.49C253.3 707.384 253.3 712.306 252.87 717.2C252.13 724.55 259.52 734.85 259.52 734.85C259.52 734.85 326.03 718.67 329.72 707.64C333.41 696.61 317.9 698.08 313.46 699.55C309.02 701.02 287 696.77 284 691.62C283.438 690.669 282.767 689.786 282 688.99C281.364 688.294 280.512 687.832 279.582 687.678C278.652 687.524 277.697 687.687 276.87 688.14L276.7 687.96L276.5 687.73L276.37 687.57L276.13 687.26C275.97 687.04 275.81 686.8 275.64 686.55L275.46 686.28C275.167 685.813 274.867 685.31 274.56 684.77L274.5 684.67C269.78 676.06 264.71 658.5 263.5 654.32V654.23L263.4 653.89V653.76V653.67V653.5V653.42L246.4 598.26C251.57 578.4 246.4 568.84 246.4 568.84L236.79 523.98L231.37 503.66C231.54 503.49 231.62 503.38 231.62 503.38C227.2 491.02 223.73 464.8 221.62 444.54C221.48 443.207 221.347 441.92 221.22 440.68L237.58 448.22C237.58 448.22 259.75 482.05 273.79 465.87C287.83 449.69 245.71 435.71 245.71 435.71L219 418.06L218.94 417.29L215.94 395.23C215.94 395.23 207.81 368.75 211.51 351.1C214.66 336.1 204.4 330.64 201.29 329.36C200.802 329.174 200.301 329.027 199.79 328.92C195.74 327.92 191.22 323.84 187.38 319.42C184.108 315.627 180.269 312.362 176 309.74C178.493 308.085 180.23 305.511 180.83 302.58C181.45 299.19 180.28 295.82 179.24 292.49C180.745 288.805 182.492 285.224 184.47 281.77H184.59C184.897 281.243 185.197 280.747 185.49 280.28C193.292 279.387 200.493 275.656 205.722 269.798C210.952 263.939 213.845 256.363 213.85 248.51C213.852 243.11 212.475 237.799 209.85 233.08C213.16 231.93 216.34 230.48 215.14 227.08C214.33 224.78 212.14 223.28 210.49 221.51C206.04 216.83 204.68 209.8 200.02 205.32C198.673 204.042 197.113 203.01 195.41 202.27C190.68 199.59 184.62 199.27 179.15 200.27C172.38 201.51 166.07 204.49 159.47 206.41C153.66 208.09 147.58 208.96 142.01 211.33C132.51 215.33 125.2 223.59 120.81 232.9C116.93 241.13 115.13 250.24 110.89 258.29C106.65 266.34 98.8901 273.59 89.7401 273.29C87.3801 273.21 84.9401 272.64 82.7401 273.46C81.0065 274.215 79.5718 275.523 78.66 277.18C73.66 285.34 76.87 296.33 72.89 305.03C69.89 311.5 63.54 315.59 58.3 320.44C53.06 325.29 48.56 332.52 51.03 339.2C51.7343 340.879 52.7666 342.399 54.0666 343.674C55.3665 344.948 56.9078 345.949 58.6 346.62C60.3299 347.566 62.1951 348.241 64.13 348.62C69.13 349.62 74.22 349.02 79.27 348.62C92.94 347.62 107.88 348.17 118.73 339.85C123.2 336.42 126.64 331.69 130.22 327.22C130.257 334.017 131.029 340.789 132.52 347.42V347.42ZM152.2 393.67C153.31 395.5 154.44 397.32 155.61 399.12C166.47 415.8 151.74 438.62 151.74 438.62C148.381 441.374 145.493 444.657 143.19 448.34C143.38 441.34 144.19 433.34 146.57 427.59C150.24 418.69 151.68 402.36 152.2 393.67V393.67Z" fill="url(#paint0_linear)"/>
<path d="M141.09 361.7L135.32 397.62C135.32 397.62 128.1 421.33 128.82 432.82C129.54 444.31 128.82 460.12 128.82 460.12C128.82 460.12 111.5 491.73 125.93 504.66C140.36 517.59 144.7 463.71 144.7 463.71C144.7 463.71 142.53 440.71 147.59 428.51C152.65 416.31 153.36 389.72 153.36 389.72L141.09 361.7Z" fill="#FFCDD3"/>
<path opacity="0.05" d="M141.09 361.7L135.32 397.62C135.32 397.62 128.1 421.33 128.82 432.82C129.54 444.31 128.82 460.12 128.82 460.12C128.82 460.12 111.5 491.73 125.93 504.66C140.36 517.59 144.7 463.71 144.7 463.71C144.7 463.71 142.53 440.71 147.59 428.51C152.65 416.31 153.36 389.72 153.36 389.72L141.09 361.7Z" fill="black"/>
<path d="M225.66 485.22L235.66 522.62L245 566.44C245 566.44 250.05 575.78 245 595.17L261.6 649.05C261.6 649.05 270.98 683.53 276.76 684.25C282.54 684.97 270.99 711.55 270.99 711.55L255.11 702.21C255.11 702.21 250.8 680.66 245 675.63C239.2 670.6 220.46 620.32 220.46 620.32L214.69 585.12C214.69 585.12 196.69 536.99 180.77 525.5C164.85 514.01 159.84 495.33 159.84 495.33L225.66 485.22Z" fill="#FFCDD3"/>
<path opacity="0.05" d="M159.85 495.32C159.85 495.32 164.9 514 180.78 525.49C196.66 536.98 214.7 585.11 214.7 585.11L220.47 620.31C220.47 620.31 239.24 670.6 245.01 675.62C249.25 679.31 252.71 691.91 254.25 698.34C254.81 700.67 255.12 702.2 255.12 702.2L271 711.55C271 711.55 282.55 684.97 276.77 684.25C275.87 684.14 274.89 683.25 273.87 681.74C268.31 673.68 261.61 649.05 261.61 649.05L245 595.17C250.05 575.77 245 566.44 245 566.44L235.62 522.62L225.62 485.22L159.85 495.32Z" fill="black"/>
<path d="M67.46 682.09L73.2299 695.74L99.2299 692.87C98.429 689.161 97.9836 685.384 97.8999 681.59C97.6699 673.44 98.9 662.43 105.72 654.08C117.99 638.99 136.72 601.64 136.72 601.64C136.72 601.64 155.49 581.53 159.82 573.64L196 513.3L194.86 507.88L204.6 498.88H144L129.56 554.88L118 577.88C118 577.88 93.46 598.71 84.08 642.53C84.08 642.53 74.7199 671.72 68.7599 680.44C68.383 681.032 67.9475 681.585 67.46 682.09Z" fill="#FFCDD3"/>
<path opacity="0.1" d="M254.26 698.35C254.82 700.68 255.13 702.21 255.13 702.21L271 711.55C271 711.55 282.55 684.97 276.77 684.25C275.87 684.14 274.89 683.25 273.87 681.74C273.114 682.181 272.523 682.859 272.189 683.668C271.855 684.477 271.796 685.374 272.02 686.22C272.246 687.294 272.63 688.329 273.16 689.29C275.33 692.88 265.94 698.63 265.94 698.63C262.8 702.66 257.66 700.53 254.26 698.35Z" fill="black"/>
<path d="M272.76 687.64C272.568 686.746 272.673 685.814 273.061 684.986C273.448 684.157 274.095 683.478 274.904 683.052C275.713 682.626 276.639 682.477 277.541 682.626C278.443 682.776 279.272 683.216 279.9 683.88C280.644 684.659 281.295 685.521 281.84 686.45C284.73 691.45 306.38 695.79 310.71 694.35C315.04 692.91 330.2 691.48 326.59 702.25C322.98 713.02 258 728.79 258 728.79C258 728.79 250.78 718.73 251.5 711.55C251.92 706.769 251.92 701.961 251.5 697.18C251.5 697.18 261.61 706.52 266.66 700.05C266.66 700.05 276.04 694.3 273.88 690.71C273.357 689.748 272.98 688.713 272.76 687.64V687.64Z" fill="white"/>
<path opacity="0.1" d="M67.46 682.09L73.2299 695.74L99.2299 692.87C98.429 689.161 97.9836 685.384 97.8999 681.59C97.643 681.074 97.2647 680.628 96.7975 680.291C96.3303 679.954 95.7882 679.735 95.2177 679.653C94.6473 679.572 94.0655 679.63 93.5225 679.822C92.9794 680.015 92.4913 680.337 92.1 680.76C90.76 682.2 89.3999 683.76 88.3999 684.96C85.5099 688.55 76.13 686.4 76.13 686.4C73.7 687.2 70.81 683.71 68.75 680.49C68.3734 681.064 67.9413 681.6 67.46 682.09V682.09Z" fill="black"/>
<path d="M91.3799 682.2C91.8121 681.743 92.3578 681.409 92.9613 681.232C93.5648 681.056 94.2045 681.042 94.8148 681.194C95.4251 681.345 95.9843 681.656 96.435 682.095C96.8857 682.534 97.2118 683.084 97.3799 683.69C98.6899 688.8 101.57 695.4 107.85 697.9C118.68 702.21 133.85 709.39 128.78 715.9C123.71 722.41 106.4 728.11 91.2499 723.08C76.0999 718.05 54.4399 705.84 54.4399 705.84L65.2699 677.11C65.2699 677.11 71.0699 689.28 75.3999 687.88C75.3999 687.88 84.7799 690.04 87.6699 686.44C88.6799 685.15 89.9999 683.64 91.3799 682.2Z" fill="white"/>
<path d="M189.45 278.37C189.45 278.37 172.13 302.08 176.45 318.6C180.77 335.12 141.8 307.82 141.8 307.82C141.8 307.82 162.01 289.82 158.4 260.41L189.45 278.37Z" fill="#FFCDD3"/>
<path d="M132.43 503.22C161.3 520.46 195.95 513.28 195.95 513.28L195.23 508.28L196.73 508.42C224.32 510.85 230.6 502.53 230.6 502.53C226.28 490.45 222.9 464.85 220.79 445.06C220.49 442.22 220.21 439.49 219.96 436.94C219.39 431.17 218.96 426.32 218.69 423.03C218.45 420.14 218.33 418.48 218.33 418.48L215.43 396.88C215.43 396.88 207.49 371.02 211.1 353.78C214.17 339.1 204.16 333.78 201.1 332.54C200.622 332.358 200.131 332.214 199.63 332.11C195.63 331.18 191.26 327.11 187.51 322.83C182.041 316.596 175.071 311.863 167.26 309.08C163.63 307.77 160.55 306.37 160.55 306.37C155.5 300.62 141.78 304.21 141.78 304.21C125.18 314.99 133.84 350.21 133.84 350.21L140.74 369.84C144.709 380.719 149.963 391.086 156.39 400.72C167 417.01 152.61 439.3 152.61 439.3C130.26 457.24 132.43 503.22 132.43 503.22Z" fill="#B70000"/>
<path opacity="0.05" d="M194.14 469.82L196.72 508.4C224.31 510.83 230.59 502.51 230.59 502.51C226.27 490.43 222.89 464.83 220.78 445.04C220.48 442.2 220.2 439.47 219.95 436.92L194.14 469.82Z" fill="black"/>
<path opacity="0.1" d="M148.31 368.88C148.31 368.88 161.31 393.3 165.63 404.08C169.95 414.86 169.96 411.26 172.13 414.86C174.3 418.46 197.39 434.26 197.39 434.26L220.78 445.04C219.78 435.76 219.08 427.75 218.68 423.04L196.68 408.43C196.68 408.43 181.52 399.09 180.8 386.88C180.08 374.67 170.69 352.4 170.69 352.4C170.69 352.4 151.91 332.25 144 341.59C136.09 350.93 148.31 368.88 148.31 368.88Z" fill="black"/>
<path d="M170.68 348.77C170.68 348.77 180.06 371.04 180.79 383.25C181.52 395.46 196.67 404.8 196.67 404.8L244.31 436.41C244.31 436.41 285.45 450.06 271.74 465.86C258.03 481.66 236.37 448.62 236.37 448.62L197.37 430.62C197.37 430.62 174.27 414.82 172.11 411.22C169.95 407.62 169.94 411.22 165.61 400.44C161.28 389.66 148.29 365.24 148.29 365.24C148.29 365.24 136.02 347.24 143.96 337.94C151.9 328.64 170.68 348.77 170.68 348.77Z" fill="#FFCDD3"/>
<path opacity="0.1" d="M176.46 358.11C176.46 358.11 162 347.34 159.13 343.74C157.86 342.15 155.88 342.39 154.07 343.15C150.685 344.582 147.004 345.175 143.34 344.88C140.18 344.61 137.11 344.79 137.48 346.59C138.2 350.18 135.31 327.91 135.31 327.91L147.58 323.6L163.46 332.22L176.46 358.11Z" fill="black"/>
<path d="M176.46 356.67C176.46 356.67 162 345.88 159.13 342.31C157.86 340.72 155.88 340.96 154.07 341.72C150.69 343.16 147.013 343.764 143.35 343.48C140.19 343.21 137.12 343.39 137.49 345.19C138.21 348.78 135.32 326.51 135.32 326.51L147.59 322.2L163.47 330.82L176.46 356.67Z" fill="#960000"/>
<path opacity="0.1" d="M210.45 358.11C207.843 359.248 205.002 359.743 202.164 359.555C199.326 359.367 196.574 358.501 194.14 357.03" fill="black"/>
<path opacity="0.1" d="M163.1 262.21C163.64 257.92 158.3 266.83 157.69 261.85L188.69 279.85C188.69 279.85 186.92 282.28 184.69 286.11C183.515 286.242 182.333 286.309 181.15 286.31C171.81 286.27 168.85 268.65 163.1 262.21Z" fill="black"/>
<path d="M181.87 284.84C199.212 284.84 213.27 270.849 213.27 253.59C213.27 236.331 199.212 222.34 181.87 222.34C164.528 222.34 150.47 236.331 150.47 253.59C150.47 270.849 164.528 284.84 181.87 284.84Z" fill="#FFCDD3"/>
<path opacity="0.1" d="M196 254.13C195.76 256.13 195.81 258.13 194.87 259.91C193.56 262.35 190.73 263.46 188.36 264.91C178.77 270.79 175.92 284.02 178.98 294.81C180.06 298.63 181.77 302.5 181.06 306.41C179.84 313.12 172.16 316.6 165.34 317.19C158.52 317.78 151.34 316.69 144.99 319.19C134.22 323.33 129.5 335.88 120.39 342.88C109.79 351.01 95.1899 350.51 81.8499 351.45C76.9099 351.8 71.9099 352.39 67.0599 351.45C62.2099 350.51 57.4299 347.56 55.7099 342.94C53.2899 336.42 57.7099 329.35 62.8099 324.62C67.9099 319.89 74.1599 315.9 77.0599 309.62C80.9499 301.12 77.8099 290.39 82.6999 282.42C83.5949 280.801 85.0017 279.524 86.6999 278.79C88.8599 277.98 91.2499 278.54 93.5499 278.62C102.46 278.93 110.07 271.85 114.21 263.99C118.35 256.13 120.11 247.23 123.9 239.19C128.18 230.09 135.32 222.07 144.61 218.12C150.05 215.81 155.98 214.96 161.66 213.31C168.11 211.44 174.27 208.53 180.88 207.31C187.49 206.09 194.98 206.9 199.81 211.55C204.36 215.93 205.69 222.79 210.03 227.37C211.67 229.1 213.78 230.56 214.57 232.81C216.44 238.13 207.35 238.58 204.32 240.71C202.088 242.258 200.199 244.248 198.767 246.557C197.336 248.865 196.394 251.443 196 254.13V254.13Z" fill="black"/>
<path d="M194.51 253.42C194.27 255.42 194.32 257.42 193.38 259.2C192.07 261.64 189.24 262.75 186.87 264.2C177.28 270.08 174.43 283.31 177.49 294.1C178.57 297.92 180.28 301.79 179.57 305.7C178.35 312.41 170.67 315.89 163.85 316.48C157.03 317.07 149.85 315.98 143.5 318.48C132.78 322.64 128.06 335.15 118.95 342.15C108.35 350.28 93.75 349.78 80.41 350.72C75.47 351.07 70.47 351.66 65.62 350.72C60.77 349.78 55.99 346.83 54.27 342.21C51.85 335.69 56.27 328.62 61.37 323.89C66.47 319.16 72.72 315.17 75.62 308.89C79.51 300.39 76.37 289.66 81.26 281.69C82.1549 280.071 83.5617 278.794 85.26 278.06C87.42 277.25 89.81 277.81 92.11 277.89C101.02 278.2 108.63 271.12 112.77 263.26C116.91 255.4 118.67 246.5 122.46 238.46C126.74 229.36 133.88 221.34 143.17 217.39C148.61 215.08 154.54 214.23 160.22 212.58C166.67 210.71 172.83 207.8 179.44 206.58C186.05 205.36 193.54 206.17 198.37 210.82C202.92 215.2 204.25 222.06 208.59 226.64C210.23 228.37 212.34 229.83 213.13 232.08C215 237.4 205.91 237.85 202.88 239.98C200.637 241.526 198.736 243.517 197.296 245.829C195.856 248.141 194.908 250.725 194.51 253.42V253.42Z" fill="#2D283D"/>
</g>
<defs>
<linearGradient id="paint0_linear" x1="190.36" y1="735.02" x2="190.36" y2="199.71" gradientUnits="userSpaceOnUse">
<stop stop-color="#808080" stop-opacity="0.25"/>
<stop offset="0.54" stop-color="#808080" stop-opacity="0.12"/>
<stop offset="1" stop-color="#808080" stop-opacity="0.1"/>
</linearGradient>
<clipPath id="clip0">
<rect width="1008" height="743.76" fill="white"/>
</clipPath>
</defs>
</svg>
